<?xml version="1.0" encoding="utf-8"?>
<!-- Generator: Adobe Illustrator 18.1.1, SVG Export Plug-In . SVG Version: 6.00 Build 0)  -->
<svg version="1.0" id="Layer_1" xmlns="http://www.w3.org/2000/svg" xmlns:xlink="http://www.w3.org/1999/xlink" x="0px" y="0px"
	 viewBox="0 0 600 600" enable-background="new 0 0 600 600" xml:space="preserve">
<g>
	<path fill="#F8C38F" d="M457,92.9c2.5-3.3,3-12.3-5.5-5.5c-8.6,6.8-4.9,31.8-4.9,31.8c-2.9,10.2-8.3-25.2-1.8-34.5
		c4.3-6.1-4-8.5-9-0.4s-2.9,32.8-1.4,37.4s-9.2-28.6-7.4-40.9c1.2-8.2-13-6.6-11,5.6s7,33.9,8.5,36.8c1.5,2.9-16.1-21.4-15.9-34.5
		c0.1-9.4-11-3.4-8.2,7.3s15.5,25.3,17.1,30.6s-5.6,17-10,17.7c0,0-8.7-0.8-19.2-7.4c-10.5-6.5-22.7,17.7,2.9,17.8
		c25.5,0.1,21.3,2.6,27.8,9.8c6.4,7.1,17.4,2,21.3,3.6c3.9,1.6,36.3,21.3,38.2,28.6c1.9,7.3-23.1,34.8-27.3,38.6
		c-4.2,3.8,11.3,16.3,18.6,10.9c0,0,25.9-38.4,26.8-49.7s-40.4-36.2-41.7-38.8c0,0,4-0.6,5.2-9C461,140.2,445.1,108.4,457,92.9z"/>
	<path fill="#353535" d="M444.6,475.8c0,0-23.4,29.2,10.8,34.6c34.2,5.4,61.4-42.4,60.3-71.7s-28.2-20.8-28.2-20.8L444.6,475.8z"/>
	<path fill="#353535" d="M395.9,479c0,0-11.7,25.8,9,31.9c20.6,6.1,51.8-28.9,31.9-59.8C416.8,420.3,395.9,479,395.9,479z"/>
	<path fill="#E4E4EA" d="M436.1,493.4c2.6,31.7,45.4,12,45.4,12c22.4-10.5,43-64.1,31.1-80.1c-11.9-16-27.2-6.3-27.2-6.3
		c17.2-3.5,22.1,9.1,22.1,9.1c5.4,3.7,4.7,49.9-28,66.1c-25.6,12.7-33.4-3.2-33.4-3.2s-3.8-9,0.5-17.8
		C446.5,473.2,437.9,482.6,436.1,493.4"/>
	<path fill="#E4E4EA" d="M398.2,473.2c0,0-13.7,26.3,2.4,35.8c16.1,9.6,44.9-8.4,42.6-42.4c0,0-0.9-11.1-3.9,0
		c-3,11.1-10.8,39.1-32.3,36.9C385.4,501.4,398.2,473.2,398.2,473.2z"/>
	<path fill="#47200F" d="M271.6,348.4c0,0,39.2,20.4,27.7,31.7c0,0,43.7-32.7,31-60.3S271.6,348.4,271.6,348.4z"/>
	<path fill="#ED2124" d="M292.9,373.2c0,0,8.9-16,30.4-17.2C344.8,355,311.7,381.9,292.9,373.2z"/>
	<path fill="#FFFFFF" d="M272.5,354.5c0,0,2.2,5.9,3.6,6.6s4.2-0.1,6.9-1.1c2.8-1,35.4-13.2,38-42.4c0,0-10-8.9-14.2-1.1
		C302.6,324.3,272.5,354.5,272.5,354.5z"/>
	<path fill="#31419A" d="M421.1,264.6c0,0,21.9-25.3,21.9-36.4c0,0,50.5,35.4,56.6,43.1c0,0-41.2,31.3-46.1,43.7
		c0,0,59.1,18.6,46.1,90.5c0,0-35.7,44.6-99.7,12.4c0,0,12.6-49.2-44.5-67.1C355.5,350.9,401.7,267.6,421.1,264.6z"/>
	<path fill="#31419A" d="M220.8,288.5h-27c0,0,17.2,38.7,21.5,56l28.9-13.2C244.2,331.3,254.6,297.2,220.8,288.5z"/>
	<path fill="#F8C38F" d="M272.5,354.5c6.9-2,30.3-9.3,41.1-32.2c12.5-26.4,27.3,40.6-21,49.6c-1.4,0.3-2.7,0.5-4.2,0.6
		c-0.4,12.4,26.6,19.6,53,0.9c12.7-9.1,38.8-26.8,52-75.1c0,0,6.3,4.7,15.2-8.9c8.9-13.5,24.5-47.4-3-41.1c0,0,3-46.6-15.7-61.8
		c-18.6-15.2-111.6-58.7-174.3,21c-1.9,2.5-14.9,83.5,29.8,112.4c0,0-8.9,30.8,19.9,29.8l-0.5,0c0,0,1.7,1.4,4,3.6
		C269,353.5,269.8,355.3,272.5,354.5z"/>
	<path fill="#E28137" d="M249.5,345c0,0,22.9,11.2,27.3-12.9c0,0-1.6,17-11.9,17.8C254.7,350.7,249.5,345,249.5,345z"/>
	<path fill="#2A2B78" d="M485.3,259.1c0,0-51.5,44.4-48.3,60.9c3.2,16.5,51.3,14.3,48.3,97.8l14.3-12.2c0,0,13.9-66.6-46.1-90.5
		c0,0,33.4-33,46.1-43.7L485.3,259.1z"/>
	<path fill="#070808" d="M400,416.5c0,0-29.6,19.1,0,57.1c0,0,15,8.7,37-14.1c0,0,14.4,26.1,52.4,10.9c38-15.2,17-46.1-4-54
		C485.3,416.3,458.4,443,400,416.5z"/>
	<path fill="#F6AF6F" d="M232.3,267.3c0,0,17.2,16.5,20.3,36.3c0,0-1.2,14-4.2,12.9c-3-1.1-5.2-41.6-22.5-40.9
		C208.6,276.2,232.3,267.3,232.3,267.3z"/>
	<path fill="#47200F" d="M252.6,303.6c0,0-4.2,19.9-16.2,9.1C236.4,312.7,252.6,332.9,252.6,303.6z"/>
	
		<ellipse transform="matrix(-0.7004 0.7137 -0.7137 -0.7004 577.9268 308.57)" fill="#47200F" cx="224.2" cy="275.6" rx="11.6" ry="4.6"/>
	<path fill="#F6AF6F" d="M274,259.2c0,0,24.1,36.7,0.6,43.7c0,0,30.4,8,6.4-46L274,259.2z"/>
	
		<ellipse transform="matrix(1 2.297470e-03 -2.297470e-03 1 0.5954 -0.6208)" fill="#47200F" cx="270.5" cy="258.8" rx="11.6" ry="4.6"/>
	<path fill="#F6AF6F" d="M276.1,204.9c0,0,45.5,6.9,76.9,53.9s13.2,89.9-11.7,114.6c0,0,36.4-16.2,52-75.1c0,0,10.3,8.8,24.7-27.4
		c14.4-36.2-18-24-20.2-21c-2.2,3-24.8-31.3-28.1-39.7S313.5,177.9,276.1,204.9z"/>
	<path fill="#47200F" d="M265.2,294.5c0,0,11.9,19.8,23.2,0C288.4,294.5,280.8,321.7,265.2,294.5z"/>
	<path fill="#F8C38F" d="M292,372.1c0,0-6.3-1.2-5.5,3.5c0.8,4.7,6.4,2.7,6.4,2.7"/>
	<path fill="#47200F" d="M203.9,231.6c-1.2,18.1,1.5,41.6,18.3,60.3c0,0-17.2-48.8-2.7-70.9s-31.8,32.4,62.6,26.9
		c0,0-31.6-5.4-29.5-19.7c2.1-14.3-4.8,12,40.3,7.8c0,0-22.3-11.4-22.4-26.4c-0.1-15,9.3,17.8,46.3,15.7c0,0-28.9-14.5-14.6-21.4
		c51.5-24.7,79.7,53.7,79.7,65.2l11.2-0.2c0,0,6-24.6,15.7-23.1c4.8,0.7,15.6-118-122.3-112.4c0,0,1.9,7.4,15.7,9.7
		c13.8,2.3-45-15.7-65.8-9.9c0,0,15.2,8.3,26.8,9.9c0,0-17.5-9.8-50.7,3.8c0,0,27.5-2.1,32.1,3.6c0,0-43.1,8.5-50.6,2.1
		c0,0,13.3,12.2,25.7,10c0,0-15.4,4.2-21.1,19.9c0,0,16.4-8.6,5,9.9s-15,45.9-2.9,61.8L203.9,231.6z"/>
	<path fill="#662B15" d="M244.5,186.6c0,0-31.2,31.1-4.4,48.3C240.1,234.9,220.9,216.1,244.5,186.6z"/>
	<path fill="#662B15" d="M258.9,192.5c0,0-16.3,28.5,17.9,38.1C276.8,230.6,252.4,217.7,258.9,192.5z"/>
	<path fill="#662B15" d="M276.8,189.8c0,0-0.6,19.6,22.4,28C299.1,217.8,280.7,203.2,276.8,189.8z"/>
	<path fill="#662B15" d="M314.1,189.8c0,0,44.3-6.4,60.1,40.8C374.2,230.6,366.7,179.6,314.1,189.8z"/>
	<path fill="#662B15" d="M252.6,158.2c0,0-20.3,3.2-33.1,0C219.5,158.2,235,165.8,252.6,158.2z"/>
	<path fill="#662B15" d="M258.9,136.7c0,0,29,4.3,40.3,9.7C299.1,146.3,267.9,143.9,258.9,136.7z"/>
	<path fill="#662B15" d="M197.7,228.2c0,0,4.2-38.9,26.5-48.6C224.2,179.6,206.8,194.6,197.7,228.2z"/>
	<path fill="#662B15" d="M215.4,203.8c0,0-15.8,31.1-4.5,59.6C210.9,263.4,205.3,220.5,215.4,203.8z"/>
	<path fill="#F8C38F" d="M203.4,311.1l-5.2-16.6l-60.6-14.3c0.5-5,2.2-12.3-3.1-17.2c-7-6.6-9.6-2.4-9.3-27.9
		c0.3-25.5-24.1-13.7-17.7-3.2c6.4,10.6,7.1,19.3,7.1,19.3c-0.8,4.4-12.6,11.3-17.9,9.7c-5.3-1.6-19.6-14.6-30.3-17.6
		c-10.7-3-16.8,8.1-7.4,8.1c13.1,0.1,37.1,18,34.3,16.5c-2.9-1.6-24.5-7-36.7-9.1c-12.2-2.2-14,11.9-5.8,10.9
		c12.2-1.6,45.4,9.6,40.7,8.1c-4.6-1.5-29.2-4-37.4,0.8c-8.2,4.8-5.9,13.1,0.3,9c9.4-6.3,44.7-0.3,34.4,2.4c0,0-25-4-31.9,4.4
		c-6.9,8.5,2.1,8.1,5.5,5.6c15.7-11.6,47.2,4.8,55.7,3.8c8.4-1,9.1-5,9.1-5l0.1-0.1L203.4,311.1z"/>
</g>
</svg>
