<?xml version="1.0" encoding="utf-8"?>
<!-- Generator: Adobe Illustrator 18.1.1, SVG Export Plug-In . SVG Version: 6.00 Build 0)  -->
<svg version="1.0" id="Layer_1" xmlns="http://www.w3.org/2000/svg" xmlns:xlink="http://www.w3.org/1999/xlink" x="0px" y="0px"
	 viewBox="0 0 600 600" enable-background="new 0 0 600 600" xml:space="preserve">
<g>
	<g>
		<path fill="#DC6526" d="M390.3,568.1c-0.7,0-1.3-0.1-2-0.2c-6.9-1.1-11.7-7.6-10.6-14.5c0-0.2,4-27.7-10.3-48
			c-11.2-15.8-63.7-12.5-100.2,12.4c-20,13.7-36.1,18.3-49.2,14.3c-11.5-3.5-15.5-12.3-16.2-14.1c-2.6-6.5,0.6-13.9,7.1-16.5
			c6.2-2.4,13.1,0.3,16,6.1c1.2,0.8,9.4,1.8,27.9-10.8c20.3-13.9,47.4-23.6,72.6-26c29.4-2.8,51.6,4.2,62.7,19.9
			c20.3,28.8,14.9,65.1,14.6,66.6C401.9,563.6,396.5,568.1,390.3,568.1z"/>
	</g>
	<path fill="#FFFFFF" d="M413.2,289.1c0,0,0.9,1.9,3.4,4.6l1.5-4.9C418.1,288.8,414.3,289.1,413.2,289.1z"/>
	<path fill="#F5841F" d="M283.7,276.9c0,0,90.4,99.4,160.4,139.7c0,0,6.1-22.9,17.6-24.9c0,0-74.6-48.9-94.1-82.5
		c0,0-1.5-3.4-34.6-38.7S283.7,276.9,283.7,276.9z"/>
	<path fill="#DC6526" d="M315.4,296.2c0,0-12.3-14.2-3.8-15.1s23.5,39,51,39.5l-21.9-41.9l-41.9-16.7l-10.2,14.2L315.4,296.2z"/>
	<path fill="#F5841F" d="M403.6,172.9c1.2,16.4,2.9,59.9-0.8,68.3c0,0,17.4,7.2,19.7,17.4c0,0,19.2,33.9-16.7,30.6
		c0,0-21.2,48.8-59.7,21.8c-17.7-12.4-24.6-40.4-49.6-36.8c-69.7,10-82.3,70.9-94.3,110.9c-12,40,3.6,53.4,3.6,53.4
		s37.5,38.7,17.9,74.6s-40.5,13.9-40.5,13.9s-17,51.7-91.4-5.6c0,0,1.3-38.8-13.1-65.7s-28.1-119.6,24.8-179S211.3,207,211.3,207
		S183.8,114.3,193,86.9c0,0,71.8-6.5,103.1,0c0,0,5.1-17-7.6-33.3c-12.7-16.3-3.5-29.4,8.2-22.8c0,0-3.3-15.7,7.8-17
		c11.1-1.3,17,6.5,17,6.5s16.3-10.4,26.8,7.8c10.4,18.3,7.5,51.6,7.5,51.6s23.2-6.5,29.7,2c6.5,8.5,2.6,28.1-26.8,21.5
		c0,0-28.7,5.9-37.9,3.3c0,0-66.9,10.4-74.2,16.3c0,0-11.3,4.6-10,11.7c1.3,7.2,20.2,47,27.4,49.6c7.2,2.6,64.3-43.2,95.8-28.1
		c0,0,17.2,2,29.9,5.1C389.8,161.1,403,164.2,403.6,172.9z"/>
	<path fill="#FCF0E7" d="M320.9,106.5c9.4,1.3,37.9-3.3,37.9-3.3c29.4,6.5,33.3-13.1,26.8-21.5c-6.5-8.5-29.7-2-29.7-2
		s3-33.3-7.5-51.6c-10.4-18.3-26.8-7.8-26.8-7.8s-5.9-7.8-17-6.5c-11.1,1.3-7.8,17-7.8,17c-11.7-6.5-20.9,6.5-8.2,22.8
		c12.7,16.3,7.6,33.3,7.6,33.3s-1.5,13.9,8.4,13.9C314.5,100.8,316.7,105.9,320.9,106.5z"/>
	<path fill="#6B431A" d="M391.6,226.2c0,0,2.4,15.3,12.9,8.9C404.5,235.1,393.7,247.1,391.6,226.2z"/>
	<path fill="#6B431A" d="M377.4,223.5c0,0-3.4,15-21.9,6.2C355.5,229.6,375.2,244.5,377.4,223.5z"/>
	<path fill="#F5841F" d="M85.1,471.4c0,0-15.8-8.6-23.7,17.6c-7.9,26.2-3.7,76.9,27.8,89.8s50.3-7.1,50.3-16.2s-1.4-14.1-13.2-19.9
		c0,0-32.4-17.7-34.5-21.1C91.8,521.5,91.4,478.7,85.1,471.4z"/>
	<path fill="#F5841F" d="M189.4,531.5c0,0,20.4,34.4-6.6,42.7c-27,8.3-40.7-26.6-40.7-26.6s29.4,8,41.1-20.5
		C183.2,527.1,187.7,531.5,189.4,531.5z"/>
	<path fill="#DC6526" d="M120.7,539.5c0,0-5.3,12.6-28.5,6c0,0,20.3,3.3,25.4-6.6L120.7,539.5"/>
	<path fill="#F5841F" d="M454.8,420c0,0,1.1,23.4,8.8,32.5s19.3,2,19.3,2s12.1,7.2,27-2c0,0,19.8,5,20.9-13.9s-28.1-29.2-28.1-29.2
		s-8.6-37.5-39.7-19.1c0,0-10.5-3.3-20.4,24.9C442.7,415.1,447.1,419.8,454.8,420z"/>
	<path fill="#DC6526" d="M467.3,399.9c0,0-0.4,22.5,15.6,23.5c16,1,15.8-24.3,15.8-24.3s2.5,9.6,4,10.2c1.5,0.6,2.5,1,2.5,1
		s-13.6,9.9-6.3,22.1s8.4,16.6,20.7,20.3c0,0-6.9,1.6-9.8-0.2c0,0-0.8,0.8-3.7,2c0,0-5.8-25.1-20.7-26.6s-12.6,6.7-12.4,9
		c0.2,2.3,8,14.3,16.8,19.9c0,0-5.5-1.8-7.1-2.3c0,0-11.7-9.8-13-22.9s-11.9-14.5-14.3-2.8l-0.9-8.8c0,0-5.6-0.6-8-2
		C446.8,418,469,422.6,467.3,399.9z"/>
	<path fill="#DC6526" d="M193,86.9c0,0,16.5,103.5,31.3,115.7c14.7,12.1-8.2,14.1-17.8,17.1S54.3,274,70,429.2
		c0,0-43.7-162.1,141.3-222.2C211.3,207,185.3,122.2,193,86.9z"/>
	<path fill="#DC6526" d="M181,509c0,0,4.8,8.6,2.2,18.1c0,0,3.1,3.1,6.2,4.4C189.4,531.5,194.5,524.7,181,509z"/>
	<path fill="#DC6526" d="M72.9,471.6c0,0,11.2,11.5,12.3,43.4c0,0-2.1,11.1,10.6,15.5c12.8,4.5,37.5,16.3,37.5,16.3
		S95,525.1,91.8,521.5c0,0-0.1-45.3-9.8-51.1C82,470.4,76.6,468.8,72.9,471.6z"/>
	<path fill="#DC6526" d="M142.5,548.5c0,0,17.9,7.2,29.2,1.9c11.3-5.3,10.5-25.3,22.6-8c0,0-3.2-9-4.9-11c0,0-4.5-2.2-6.2-4.4
		c0,0-9,26.9-41.1,20.5"/>
	<path fill="#DC6526" d="M296.3,26.9c0,0,11.9,7.7,15,19.2c0,0,11-1.6,17,0c0,0-15.9,2.9-18.5,6.2c0,0-1.7-12.9-13.1-21.6
		L296.3,26.9z"/>
	<path fill="#DC6526" d="M315.6,15.6c0,0,11.3,14.4,12.8,21.7c0,0-3.6-13.7-5.7-17.7l-1.1,0.6C321.6,20.3,317.3,17,315.6,15.6z"/>
	<path fill="#DC6526" d="M95.2,580.8c0,0,3.4-9.4,2.9-18.5c0,0-2.6,20.9,10.2,20.6C108.2,583,101,582.9,95.2,580.8z"/>
	<path fill="#DC6526" d="M121.5,581c0,0,1.6-8.6-5-19.3c0,0,8.8,15.7,16.7,12.2C133.3,573.9,126.6,579.6,121.5,581z"/>
	<path fill="#DC6526" d="M139,555.8c0,0-4.7-5-8.8-4.5c0,0,5.6-1.1,7.3,0.3C137.5,551.6,139.3,554.7,139,555.8z"/>
	<path fill="#DC6526" d="M162.7,572.4c0,0,10.7,4.9,7.4-10.3c0,0,1.1,13.1,7.5,13.1C177.6,575.3,168.2,576.1,162.7,572.4z"/>
	<path fill="#DC6526" d="M188,572c0,0,3.3-4.6-2.7-13.5c0,0,5.1,9.9,10.1,5.2C195.4,563.6,193.6,569.1,188,572z"/>
	<path fill="#232323" d="M357.3,306.6c-9.9-4.9-17.1-17.3-16.2-38.7c1.5-34-0.6-10.3,3.8-2.2c0,0,17.7,39.7,57.1,24.5
		C402.1,290.1,385.7,320.5,357.3,306.6z"/>
	<path fill="#ED2124" d="M345.4,294c0,0,28.1-10,41.4,12C386.7,306,360.8,323.4,345.4,294z"/>
	<path fill="#DC6526" d="M283.7,276.9c0,0,8.5-4.5,15,7.6l2-3.4c0,0,94.2,99.2,145.3,129.6c0,0,17.7,7.2,21.4-7.3c3.7-14.5,0,0,0,0
		s-0.8,7.4-5.2,13.7c-4.8,7-18.1-0.6-18.1-0.6"/>
	<path fill="#DC6526" d="M444.1,416.5c0,0-58.7-34-139.6-117.6c0,0-7.2-9.7-22.1,0c-14.9,9.7-12.6-22.8,1.3-22.1"/>
	<path fill="#F5841F" d="M298.7,284.5"/>
	<path fill="#F5841F" d="M191,433.1"/>
	<path fill="#F5841F" d="M283.7,276.9"/>
	<path fill="#FCF0E7" d="M238.9,324.5c-51.5,35.7-43.2,135.6-48.8,164.3c-5.6,28.8-21.6,20.4-33,12.9s-46.2-46.2-19.7-122.7
		c13.3-38.2,42-64.9,67.5-82.1c0,0,45.3-33,77.1-19.4S252.4,315.1,238.9,324.5z"/>
	<path fill="#FFFFFF" d="M361.9,286.1c0,0-0.4,2,0,5.7l4.2-3C366.1,288.7,362.8,286.8,361.9,286.1z"/>
	<path fill="#FCF0E7" d="M402.8,241.2c15.3,8.4,19.2,28.4,19.2,28.4c-15.4,11.9-42.2-5.8-42.2-5.8c-1.5-9.8-11.1-19.6-11.1-19.6
		c-29.8-24.2-45-3.6-45.7,4.7c-0.6,8.4-7.6,47.2,28.5,65.5c36.1,18.3,54.3-25.2,54.3-25.2s24.7,7.3,24.7-15.3
		C430.5,248.5,402.8,241.2,402.8,241.2z M357.3,306.6c-9.9-4.9-17.1-17.3-16.2-38.7c1.5-34-0.6-10.3,3.8-2.2
		c0,0,17.7,39.7,57.1,24.5C402.1,290.1,385.7,320.5,357.3,306.6z"/>
	<path fill="#DC6526" d="M345.4,247.7c0,0-4.7-4.9-8.9,1.3C336.5,249,339.7,239.2,345.4,247.7z"/>
	<path fill="#C44427" d="M422,269.7c0,0-11.6,12.5-42.2-5.8c0,0-7.8,3-5.6,8.3c0,0,18.2,13,30.2,15.9c0,0,16.5-12.1,16.9-12.3
		C422.1,275.4,422.8,273.1,422,269.7z"/>
	<path fill="#932F1E" d="M378.8,275.2c0,0,13-0.6,19.8,10.8C398.6,286.1,384.4,279.1,378.8,275.2z"/>
	<path fill="#932F1E" d="M408.2,285.3c0,0,5.5-6.3,11.6-8.5C419.8,276.8,408.7,284.9,408.2,285.3z"/>
	<g>
		<path fill="#DC6526" d="M413.2,311.1c0,0,2.5-0.9,3.8-3.8C415.8,308.6,414.5,309.9,413.2,311.1z"/>
		<path fill="#DC6526" d="M435.5,169.5c4.2,1.2,8.6,6.3,8.6,6.3c-5.5-30.6-26-31.5-26-31.5c3.1-4.2,9.5-2.8,9.5-2.8
			c-19.2-20.5-45.1-1.6-45.1-1.6c-12-21.6-52.2-18.4-52.2-18.4c4.8,1.5,25.2,20.7,25.2,20.7c-29.9-26.7-73.1-7.3-73.1-7.3
			c22.3,0,26.6,14.4,26.6,14.4c-44.3-7.5-52.7,44.4-52.7,44.4c6.3-10.6,11.3-4.2,11.3-4.2c-28.2,30.4-7.1,81.8-7.1,81.8
			c0-7.8,4.2-7.4,4.2-7.4c9.9,40.5,34,50.5,34,50.5c0.1-4.9,4.1-7.1,4.1-7.1c2.1,26.2,33.6,39.4,33.6,39.4
			c-0.2-7.2,4.5-10.3,4.5-10.3c0.1,14.9,14.6,30.5,14.6,30.5c-0.3-23.6,16-23.3,16-23.3c0.3,4.6-7.7,12.2-7.7,12.2
			c33.5-21.3,53.8-54.4,53.8-54.4c0.4,2.5,0,4.5-0.7,5.9c15.2-16.5,17.8-38.8,17.8-38.8c2.1,3.5,1.4,12.6,1.4,12.6
			c12-22.7,4.9-57.6,4.9-57.6c3.5,2.3,3,11.3,3,11.3C454.2,203.1,435.5,169.5,435.5,169.5z M405.8,289.3
			c-10.9,22.2-33.5,41.7-59.7,21.8c-26.2-19.9-23.9-43.5-24-46.2s-2.8-8.7-2.8-8.7c-1.9,3.8-1.4,4.4-1.4,4.4
			c-4.2-4-5.1-11.6-5.1-11.6c-2.4,1.4-3.2,4.6-3.2,4.6c-0.5-6,1.1-18.8,1.1-18.8c-2.7,0.4-4.3,3.8-4.3,3.8c0.3-4,5.4-19,5.4-19
			c-2.4-0.8-5.4,4-5.4,4c0.8-6.3,10.6-21.3,10.6-21.3c-2.2,0.3-4.4,2.4-4.4,2.4c11.6-20.2,43.1-33.6,43.1-33.6s30.6-11.1,42.6,8.7
			c12,19.8,4.7,61.7,4.7,61.7s19.5,3.9,25.5,28.3C434.3,293.8,405.8,289.3,405.8,289.3z"/>
	</g>
	<path fill="#AB4C25" d="M313.7,182.5c0,0-44.4,16.4-48.2,64.1C265.5,246.6,274.8,203.7,313.7,182.5z"/>
	<path fill="#AB4C25" d="M313.7,267.9c0,0-15,37.9,8.3,56.9C322.1,324.8,305.5,303.6,313.7,267.9z"/>
	<path fill="#AB4C25" d="M301.1,219.5c0,0-32.6,46.2-6.3,82C294.7,301.4,276.8,249.3,301.1,219.5z"/>
	<path fill="#AB4C25" d="M408.2,232.8c0,0,19.8,1.3,25,17.3C433.2,250.1,432.2,230.2,408.2,232.8z"/>
	<path fill="#AB4C25" d="M315.6,163.6c0,0-26.7-8.9-47,16.6C268.6,180.2,285.6,161.9,315.6,163.6z"/>
	<path fill="#AB4C25" d="M420.7,169.5c0,0,7.3-11.6,15.8-5.9C436.5,163.6,426.1,153.2,420.7,169.5z"/>
	<path fill="#AB4C25" d="M408.2,195.8c0,0,0.6-0.2,1.7-0.4c5.5-1,22.8-2.3,29.5,19.1C439.4,214.5,428.9,196.7,408.2,195.8z"/>
	<path fill="#DC6526" d="M346.6,175.3c0,0,25-14.3,34.6,1.9c0,0,4.6-7,10.4-5.5S382.1,149.3,346.6,175.3z"/>
	<g>
		<path fill="#F5841F" d="M329.7,185.5c-4.6-3.1-7.6-8.5-7.6-14.6c0-9.6,7.5-17.4,16.7-17.4c9.2,0,16.7,7.8,16.7,17.4"/>
		<path fill="#FFFFFF" d="M334.8,182.5c-2.7-1.8-4.5-5-4.5-8.6c0-5.6,4.4-10.2,9.8-10.2s9.8,4.6,9.8,10.2"/>
		<path fill="#F5841F" d="M403.8,189.5c4.2-2,7.9-6.5,9.7-12.4c2.8-9.2-0.3-18.3-6.9-20.2c-6.6-2-14.1,3.9-16.9,13.1l-0.5,2.5
			l6.2,2.9l4.7,8c0,0,1.9,5,2.3,6.6L403.8,189.5z"/>
		<path fill="#FFFFFF" d="M392.8,174.1c1.6-5.4,6.1-8.9,9.9-7.7s5.7,6.5,4,11.9c-1,3.5-3.2,6.1-5.7,7.3"/>
	</g>
	<path fill="#AB4C25" d="M380.6,170.2c0,0,11.9-25.9,34.8-23.6C415.4,146.6,399.8,147.9,380.6,170.2z"/>
	<path fill="#AB4C25" d="M377.4,162.1c0,0-0.6-17.5-19.2-24.4C358.2,137.7,368.7,143.5,377.4,162.1z"/>
	<path fill="#AB4C25" d="M345.4,320.5c0,0-5,17.1,6.8,26.2C352.2,346.7,344.2,334,345.4,320.5z"/>
	<path fill="#AB4C25" d="M411.6,293.7c0,0-13.7,33.9-32.8,45.2C378.8,338.9,401.2,317.7,411.6,293.7z"/>
	<path fill="#FFFFFF" d="M414.9,289.4c0.4,0.8,1.3,2.2,2.7,4l1.8-4.8L414.9,289.4z"/>
</g>
</svg>
