<svg xmlns="http://www.w3.org/2000/svg" xmlns:xlink="http://www.w3.org/1999/xlink" width="3000" height="709" viewBox="0 0 3000 709"><symbol id="d" viewBox="-27 -55.7 54 111.4"><path opacity=".2" fill="#231F20" enable-background="new" d="M26.1-51.5c0 2.3-11.7 4.2-26.1 4.2s-26.1-1.9-26.1-4.2 11.7-4.2 26.1-4.2 26.1 1.9 26.1 4.2z"/><polygon fill="#676033" points="-2.3,55.7 -21.8,-14 19.2,-14"/><polygon fill="#AA702F" points="-2,32.2 -3.9,16 -9.3,16 -4.9,13.6 -4.7,-3.7 -13.5,-5.1 -9,-6.9 -9,-51 -0.6,-51 -3,-7.1 11.3,-0.4 -2.3,-2.6 -3,14.2 5.6,17.9 -2,16.7"/></symbol><symbol id="b" viewBox="-43 -56.8 86 113.6"><path opacity=".2" fill="#231F20" enable-background="new" d="M-4.5-43.2c0 1.7-8.5 3.1-19.1 3.1-10.5 0-19.1-1.4-19.1-3.1s8.5-3.1 19.1-3.1c10.5 0 19.1 1.4 19.1 3.1z"/><polygon fill="#58522B" points="-25.3,35 -39.6,-16 -9.6,-16"/><polygon fill="#AA702F" points="-25,17.9 -26.5,6 -30.4,6 -27.2,4.3 -27.1,-8.3 -33.4,-9.3 -30,-10.7 -30,-43 -24,-43 -25.8,-10.8 -15.3,-5.9 -25.3,-7.5 -25.8,4.8 -19.5,7.4 -25,6.6"/><path opacity=".2" fill="#231F20" enable-background="new" d="M34.8-53.4c0 1.9-8 3.4-17.8 3.4-9.9 0-17.8-1.5-17.8-3.4s8-3.4 17.8-3.4 17.8 1.5 17.8 3.4z"/><path fill="#676033" d="M14.8 56.8s-35.2-79.9-34.3-79.6l62.3 1.8-28 77.8z"/><polygon fill="#AA702F" points="13,37.1 11.6,2 -1.8,2 10,-0.3 10,-11.9 -12.5,-16.9 9.7,-15.3 7.7,-54 11,-54 11,-15.4 28.2,-10.4 13.9,-11.9 11.6,-1.5 22.2,6.8 13.6,3.6"/></symbol><symbol id="c" viewBox="-39 -70.2 78 140.4"><path opacity=".2" fill="#231F20" enable-background="new" d="M28.7-65.9c0 2.4-9.9 4.3-22.1 4.3-12.2 0-22.1-1.9-22.1-4.3s9.9-4.3 22.1-4.3c12.2 0 22.1 1.9 22.1 4.3z"/><path fill="#676033" d="M4 70.2s-43.5-98.8-42.4-98.4c1.1.4 77 2.2 77 2.2l-34.6 96.2z"/><polygon fill="#AA702F" points="1.8,45.6 0,2 -16.5,2 -2,-0.4 -2,-14.7 -29.7,-20.9 -2.3,-19.1 -4.8,-67 -1,-67 -1,-19.1 20.4,-12.8 2.9,-14.7 0,-1.9 13.1,8.4 2.5,4.3"/></symbol><symbol id="a" viewBox="-66 -70.2 132 140.4"><path opacity=".2" fill="#231F20" enable-background="new" d="M-33-6c0 1.1-4.8 2.1-10.6 2.1-5.9 0-10.6-.9-10.6-2.1 0-1.1 4.8-2.1 10.6-2.1 5.9.1 10.6 1 10.6 2.1z"/><path fill="#58522B" d="M-44.9 59.5s-21-47.5-20.4-47.4c.5.2 37 1.1 37 1.1l-16.6 46.3z"/><polygon fill="#AA702F" points="-45.9,47.9 -46.8,27 -54.7,27 -48,25.6 -48,18.7 -61.2,15.7 -47.9,16.8 -49.1,-6 -47,-6 -47,16.6 -36.8,19.6 -45.3,18.7 -46.8,24.9 -40.5,29.8 -45.6,27.9"/><path opacity=".2" fill="#231F20" enable-background="new" d="M65.3-56.8c0 2.3-11.8 4.2-26.4 4.2s-26.4-1.9-26.4-4.2 11.9-4.2 26.4-4.2 26.4 1.9 26.4 4.2z"/><polygon fill="#58522B" points="36.6,51.4 16.9,-19 58.3,-19"/><polygon fill="#AA702F" points="37,27.6 34.9,11 29.6,11 34,8.8 34.2,-8.7 25.4,-10 30,-11.8 30,-56 38.4,-56 35.9,-11.8 50.4,-5.2 36.6,-7.4 35.9,9.5 44.6,13.2 37,12.1"/><path opacity=".2" fill="#231F20" enable-background="new" d="M14.7-65.9c0 2.4-9.9 4.3-22.1 4.3-12.2 0-22.1-1.9-22.1-4.3s9.9-4.3 22.1-4.3c12.3 0 22.1 1.9 22.1 4.3z"/><path fill="#676033" d="M-10 70.2s-43.5-98.8-42.4-98.4c1.1.4 77 2.2 77 2.2l-34.6 96.2z"/><polygon fill="#AA702F" points="-12.2,45.6 -14,2 -30.5,2 -16,-0.4 -16,-14.7 -43.7,-20.9 -16.3,-19.1 -18.8,-67 -15,-67 -15,-19.1 6.4,-12.8 -11.1,-14.7 -14,-1.9 -0.9,8.4 -11.5,4.3"/></symbol><path fill="#BBB661" d="M2999.9 262.9c-108-7.7-349.4-10.5-552.4-9.8-203 .7-666 8.4-787 7.7-121-.7-1053-.7-1255 .7l-202 1.4h-203.5v423.1h2999.9v-423.1z"/><path fill="#AAAE6C" d="M2911.3 158.2c-68.9-9.4-329.2-41.7-668.5-41.7-365.4 0-524.7 48.1-548 55.9-1146.3 61.1-1694.8 241.5-1694.8 241.5v295.1h3000v-548.2c-30.4-1-58.9-1.8-88.7-2.6z"/><path fill="#9F9D88" d="M2999.9 294c-105.6 3.8-1111.9 35.6-1579.4-104-18.6 1.4-36.9 2.8-55.1 4.3 77.9 11.9 523.5 90.9-56.4 276.6-211.1 67.6-639 205.3-741.5 238.1h865c0-193.4 121-438.6 1141.2-390l426.2 10.5v-35.5z"/><use xlink:href="#a" width="132" height="140.4" x="-66" y="-70.2" transform="matrix(.819 0 0 -.819 2259.873 185.313)" overflow="visible"/><polygon fill="#9F9D88" points="1885.5,256 1735,337.6 1861.6,336.7 1920.3,254"/><use xlink:href="#b" width="86" height="113.6" x="-43" y="-56.8" transform="matrix(.807 0 0 -.807 1732.758 185.203)" overflow="visible"/><use xlink:href="#b" width="86" height="113.6" x="-43" y="-56.8" transform="matrix(.606 0 0 -.606 2707.758 153.203)" overflow="visible" enable-background="new"/><use xlink:href="#b" width="86" height="113.6" x="-43" y="-56.8" transform="matrix(-.807 0 0 -.807 2823.758 218.203)" overflow="visible" enable-background="new"/><use xlink:href="#c" width="78" height="140.4" x="-39" y="-70.2" transform="matrix(.379 0 0 -.379 1629.367 190.659)" overflow="visible"/><use xlink:href="#c" width="78" height="140.4" x="-39" y="-70.2" transform="matrix(.622 0 0 -.622 2450.822 202.641)" overflow="visible" enable-background="new"/><use xlink:href="#d" width="54" height="111.4" x="-27" y="-55.7" transform="matrix(.539 0 0 -.539 1682.602 180.239)" overflow="visible"/><use xlink:href="#d" width="54" height="111.4" x="-27" y="-55.7" transform="matrix(.388 0 0 -.388 2382.602 135.239)" overflow="visible" enable-background="new"/><use xlink:href="#d" width="54" height="111.4" x="-27" y="-55.7" transform="matrix(.539 0 0 -.539 2521.602 159.239)" overflow="visible" enable-background="new"/><ellipse opacity=".2" fill="#484A1E" enable-background="new" cx="897" cy="494" rx="119.5" ry="10"/><polygon opacity=".2" fill="#4E5223" enable-background="new" points="1802,239.5 2208.2,234 2196.2,253.3 2231.5,268 2038.9,271.3 2009.5,278.7 1942.2,276.7 1785.5,268.7"/><polygon fill="#A3763B" points="2147.5,36 2048.5,36 1994.5,153 2192.5,153"/><polygon fill="#8D6633" points="1769.5,207 1859.5,207 1949.5,36 1850.5,36"/><polygon fill="#DFD3AB" points="2141.5,36 2012.5,36 2012.5,144 1922.5,144 1922.5,36 1856.8,36 1805.5,144.2 1805.5,252 1922.5,252 2012.5,252 2183.5,252 2183.5,145.2"/><path opacity=".7" fill="#CCC19D" enable-background="new" d="M2141.5 36h-129v108h-90v-108h-65.8l-51.3 108.2v26c25.2-49.7 60.3-118.8 60.3-118.8l86.7 167h75.3l-28.7-67 32.3 5 6.1 95.7h145.9v-106.9l-41.8-109.2z"/><polygon fill="#ECE3C2" points="2158,125 2130,125 2130,91.8 2143.9,82.2 2158,91.8"/><polygon fill="#F68A5E" points="2153,120 2135,120 2135,97.4 2143.9,91 2153,97.4"/><path opacity=".2" fill="#231F20" enable-background="new" d="M2143.9 91l-8.9 6.4v9.2c6-.9 13-.8 18-.6v-8.6l-9.1-6.4z"/><path opacity=".5" fill="#CCC19D" enable-background="new" d="M2112.5 166l34-101.7s29 75.2 37 96.5v-15.6l-42-109.2h-129v108h-90v22h190z"/><rect x="2014.8" y="9" fill="#DFD3AB" width="36" height="45"/><polygon opacity=".5" fill="#CCC19D" enable-background="new" points="2050.8,54 2014.8,9 2050.8,9"/><rect x="2001.3" fill="#8D6633" width="63" height="9"/><polygon fill="#8D6633" points="2102.5,153 2003.5,153 1949.5,36 2147.5,36"/><rect x="1955" y="184" fill="#EDF0DF" width="33" height="37"/><rect x="1960" y="203" fill="#F68A5E" width="11" height="12"/><rect x="1972" y="203" fill="#F68A5E" width="11" height="12"/><rect x="1960" y="188" fill="#F68A5E" width="11" height="13"/><rect x="1972" y="188" fill="#F68A5E" width="11" height="13"/><polygon opacity=".2" fill="#231F20" enable-background="new" points="1960,215 1963.4,215 1970.9,203 1960,203"/><rect x="1960" y="188" opacity=".2" fill="#231F20" enable-background="new" width="11" height="13"/><polygon opacity=".2" fill="#231F20" enable-background="new" points="1972,188 1972,199.1 1979.5,188"/><rect x="2129" y="176" fill="#F68A5E" width="33" height="63"/><rect x="2129" y="176" opacity=".2" fill="#231F20" enable-background="new" width="33" height="52"/><rect x="2126" y="174" fill="#EDF0DF" width="39" height="7"/><rect x="1811" y="174" fill="#EDF0DF" width="33" height="37"/><rect x="1816" y="193" fill="#F68A5E" width="11" height="12"/><rect x="1828" y="193" fill="#F68A5E" width="11" height="12"/><rect x="1816" y="178" fill="#F68A5E" width="11" height="13"/><rect x="1828" y="178" fill="#F68A5E" width="11" height="13"/><polygon opacity=".2" fill="#231F20" enable-background="new" points="1816,205 1819.4,205 1826.9,193 1816,193"/><rect x="1816" y="178" opacity=".2" fill="#231F20" enable-background="new" width="11" height="13"/><polygon opacity=".2" fill="#231F20" enable-background="new" points="1828,178 1828,189.1 1835.5,178"/><rect x="1847" y="174" fill="#EDF0DF" width="33" height="37"/><rect x="1852" y="193" fill="#F68A5E" width="11" height="12"/><rect x="1864" y="193" fill="#F68A5E" width="11" height="12"/><rect x="1852" y="178" fill="#F68A5E" width="11" height="13"/><rect x="1864" y="178" fill="#F68A5E" width="11" height="13"/><polygon opacity=".2" fill="#231F20" enable-background="new" points="1852,205 1855.4,205 1862.9,193 1852,193"/><rect x="1852" y="178" opacity=".2" fill="#231F20" enable-background="new" width="11" height="13"/><polygon opacity=".2" fill="#231F20" enable-background="new" points="1864,178 1864,189.1 1871.5,178"/><rect x="2027" y="174" fill="#EDF0DF" width="33" height="37"/><rect x="2032" y="193" fill="#F68A5E" width="11" height="12"/><rect x="2044" y="193" fill="#F68A5E" width="11" height="12"/><rect x="2032" y="178" fill="#F68A5E" width="11" height="13"/><rect x="2044" y="178" fill="#F68A5E" width="11" height="13"/><polygon opacity=".2" fill="#231F20" enable-background="new" points="2032,205 2035.4,205 2042.9,193 2032,193"/><rect x="2032" y="178" opacity=".2" fill="#231F20" enable-background="new" width="11" height="13"/><polygon opacity=".2" fill="#231F20" enable-background="new" points="2044,178 2044,189.1 2051.5,178"/><rect x="2063" y="174" fill="#EDF0DF" width="33" height="37"/><rect x="2068" y="193" fill="#F68A5E" width="11" height="12"/><rect x="2080" y="193" fill="#F68A5E" width="11" height="12"/><rect x="2068" y="178" fill="#F68A5E" width="11" height="13"/><rect x="2080" y="178" fill="#F68A5E" width="11" height="13"/><polygon opacity=".2" fill="#231F20" enable-background="new" points="2068,205 2071.4,205 2078.9,193 2068,193"/><rect x="2068" y="178" opacity=".2" fill="#231F20" enable-background="new" width="11" height="13"/><polygon opacity=".2" fill="#231F20" enable-background="new" points="2080,178 2080,189.1 2087.5,178"/><rect x="1888" y="176" fill="#F68A5E" width="33" height="63"/><rect x="1888" y="176" opacity=".2" fill="#231F20" enable-background="new" width="33" height="52"/><rect x="1885" y="174" fill="#EDF0DF" width="39" height="7"/><polygon fill="#A3763B" points="2030.5,207 1940.5,207 1850.5,36 1949.5,36"/><path opacity=".2" fill="#231F20" enable-background="new" d="M2058.5 69c0 1.1-.9 2-2 2h-3c-1.1 0-2-.9-2-2s.9-2 2-2h3c1.1 0 2 .9 2 2z"/><path opacity=".2" fill="#231F20" enable-background="new" d="M2067.4 78c0 1.2-.9 2-2.1 2h-3c-1.2 0-2.1-.8-2.1-2s.9-2 2.1-2h3c1.2 0 2.1.8 2.1 2z"/><path opacity=".2" fill="#231F20" enable-background="new" d="M1939.5 155c0 1.1-.9 2-2 2h-3c-1.1 0-2-.9-2-2s.9-2 2-2h3c1.1 0 2 .9 2 2z"/><path opacity=".2" fill="#231F20" enable-background="new" d="M1948.4 164c0 1.2-.9 2-2.1 2h-3c-1.2 0-2.1-.8-2.1-2s.9-2 2.1-2h3c1.2 0 2.1.8 2.1 2z"/><path opacity=".2" fill="#231F20" enable-background="new" d="M2002.5 178c0 1.1-.9 2-2 2h-3c-1.1 0-2-.9-2-2s.9-2 2-2h3c1.1 0 2 .9 2 2z"/><path opacity=".2" fill="#231F20" enable-background="new" d="M2011.4 187c0 1.2-.9 2-2.1 2h-3c-1.2 0-2.1-.8-2.1-2s.9-2 2.1-2h3c1.2 0 2.1.8 2.1 2z"/><path opacity=".2" fill="#231F20" enable-background="new" d="M1999.5 52c0 1.1-.9 2-2 2h-3c-1.1 0-2-.9-2-2s.9-2 2-2h3c1.1 0 2 .9 2 2z"/><path opacity=".2" fill="#231F20" enable-background="new" d="M2008.4 61c0 1.2-.9 2-2.1 2h-3c-1.2 0-2.1-.8-2.1-2s.9-2 2.1-2h3c1.2 0 2.1.8 2.1 2z"/><path opacity=".2" fill="#231F20" enable-background="new" d="M2081.4 53c0 1.2-.9 2-2.1 2h-3c-1.2 0-2.1-.8-2.1-2s.9-2 2.1-2h3c1.2 0 2.1.8 2.1 2z"/><path opacity=".2" fill="#231F20" enable-background="new" d="M2086.3 47.5c0 1.2-.9 2.5-2.1 2.5h-3c-1.2 0-2.1-1.3-2.1-2.5s.9-2.5 2.1-2.5h3c1.2 0 2.1 1.3 2.1 2.5z"/><path opacity=".2" fill="#231F20" enable-background="new" d="M2103.5 70c0 1.1-.9 2-2 2h-3c-1.1 0-2-.9-2-2s.9-2 2-2h3c1.1 0 2 .9 2 2z"/><path opacity=".2" fill="#231F20" enable-background="new" d="M2117.5 59c0 1.1-.9 2-2 2h-3c-1.1 0-2-.9-2-2s.9-2 2-2h3c1.1 0 2 .9 2 2z"/><path opacity=".2" fill="#231F20" enable-background="new" d="M2092.5 130c0-1.1-.9-2-2-2h-3c-1.1 0-2 .9-2 2s.9 2 2 2h3c1.1 0 2-.9 2-2z"/><path opacity=".2" fill="#231F20" enable-background="new" d="M2083.5 139c0-1.1-.9-2-2-2h-3c-1.1 0-2 .9-2 2s.9 2 2 2h3c1.1 0 2-.9 2-2z"/><path opacity=".2" fill="#231F20" enable-background="new" d="M2047 108c0 1.2.9 2 2.1 2h3c1.2 0 2.1-.8 2.1-2s-.9-2-2.1-2h-3c-1.2 0-2.1.8-2.1 2z"/><path opacity=".2" fill="#231F20" enable-background="new" d="M2042.1 102.5c0 1.2.9 2.5 2.1 2.5h3c1.2 0 2.1-1.3 2.1-2.5s-.9-2.5-2.1-2.5h-3c-1.1 0-2.1 1.3-2.1 2.5z"/><path opacity=".2" fill="#231F20" enable-background="new" d="M2024.5 125c0 1.2.9 2 2.1 2h3c1.2 0 2.1-.8 2.1-2s-.9-2-2.1-2h-3c-1.2 0-2.1.8-2.1 2z"/><path opacity=".2" fill="#231F20" enable-background="new" d="M2017.5 114c0-1.1-.9-2-2-2h-3c-1.1 0-2 .9-2 2s.9 2 2 2h3c1.1 0 2-.9 2-2z"/><path opacity=".2" fill="#231F20" enable-background="new" d="M1891.5 72c0 1.1-.9 2-2 2h-3c-1.1 0-2-.9-2-2s.9-2 2-2h3c1.1 0 2 .9 2 2z"/><path opacity=".2" fill="#231F20" enable-background="new" d="M1900.4 81c0 1.2-.9 2-2.1 2h-3c-1.2 0-2.1-.8-2.1-2s.9-2 2.1-2h3c1.2 0 2.1.8 2.1 2z"/><path opacity=".2" fill="#231F20" enable-background="new" d="M1912.4 57c0 1.2-.9 2-2.1 2h-3c-1.2 0-2.1-.8-2.1-2s.9-2 2.1-2h3c1.2 0 2.1.8 2.1 2z"/><path opacity=".2" fill="#231F20" enable-background="new" d="M1919.3 50.5c0 1.2-.9 2.5-2.1 2.5h-3c-1.2 0-2.1-1.3-2.1-2.5s.9-2.5 2.1-2.5h3c1.2 0 2.1 1.3 2.1 2.5z"/><path opacity=".2" fill="#231F20" enable-background="new" d="M1936.5 73c0 1.1-.9 2-2 2h-3c-1.1 0-2-.9-2-2s.9-2 2-2h3c1.1 0 2 .9 2 2z"/><path opacity=".2" fill="#231F20" enable-background="new" d="M1950.5 62c0 1.1-.9 2-2 2h-3c-1.1 0-2-.9-2-2s.9-2 2-2h3c1.1 0 2 .9 2 2z"/><path opacity=".2" fill="#231F20" enable-background="new" d="M1921.4 110c0 1.2-.9 2-2.1 2h-3c-1.2 0-2.1-.8-2.1-2s.9-2 2.1-2h3c1.2 0 2.1.8 2.1 2z"/><path opacity=".2" fill="#231F20" enable-background="new" d="M1928.3 103.5c0 1.2-.9 2.5-2.1 2.5h-3c-1.2 0-2.1-1.3-2.1-2.5s.9-2.5 2.1-2.5h3c1.2 0 2.1 1.3 2.1 2.5z"/><path opacity=".2" fill="#231F20" enable-background="new" d="M1945.5 126c0 1.1-.9 2-2 2h-3c-1.1 0-2-.9-2-2s.9-2 2-2h3c1.1 0 2 .9 2 2z"/><path opacity=".2" fill="#231F20" enable-background="new" d="M1959.5 115c0 1.1-.9 2-2 2h-3c-1.1 0-2-.9-2-2s.9-2 2-2h3c1.1 0 2 .9 2 2z"/><polygon fill="#ECE3C2" points="1867,125 1839,125 1839,91.8 1852.9,82.2 1867,91.8"/><polygon fill="#F68A5E" points="1862,120 1844,120 1844,97.4 1852.9,91 1862,97.4"/><path opacity=".2" fill="#231F20" enable-background="new" d="M1852.9 91l-8.9 6.4v9.2c6-.9 13-.8 18-.6v-8.6l-9.1-6.4z"/><rect x="1868" y="239" fill="#4F473C" width="74" height="16"/><rect x="2113" y="239" fill="#4F473C" width="74" height="16"/><polygon opacity=".2" fill="#979337" enable-background="new" points="2183.5,160.8 2183.5,153 2192.5,153 2147.5,36 2141.5,36 2050.8,36 2050.8,9 2064.3,9 2064.3,0 2001.3,0 2001.3,9 2014.8,9 2014.8,36 2012.5,36 1949.5,36 1922.5,36 1856.8,36 1850.5,36 1769.5,207 1805.5,207 1805.5,252 1868.5,252 1868.5,255 1942.5,255 1942.5,252 2012.5,252 2037.6,252 2113.5,252 2113.5,255 2187.5,255 2187.5,239 2183.5,239"/><path opacity=".2" fill="#231F20" enable-background="new" d="M2187.3 373c-7.4 0-13.6 1-15.2 2.4-1.3-.1-2.6-.1-4-.1-8.6 0-15.5 1.4-15.5 3.1 0 1.7 6.9 3.1 15.5 3.1 7.4 0 13.6-1 15.2-2.4 1.3.1 2.6.1 4 .1 8.6 0 15.5-1.4 15.5-3.1 0-1.7-7-3.1-15.5-3.1z"/><path opacity=".2" fill="#231F20" enable-background="new" d="M2130.3 376.7c0-1.1-4.4-2-9.9-2-4.7 0-8.6.7-9.7 1.5l-3.4-.1c-10.1 0-18.3 1.4-18.3 3.1s8.2 3.1 18.3 3.1c10.1 0 18.3-1.4 18.3-3.1 0-.3-.2-.6-.7-.8 3.2-.2 5.4-.9 5.4-1.7z"/><path fill="#ECE3C2" d="M2117.4 365.9c.9.2-9.6 13.9-9.6 13.9l3.4 3.8 10.4-14.9s-4.8-3-4.2-2.8z"/><path fill="#ECE3C2" d="M2142.4 363.4s4.1 4.1 10.1 6l6 1.9s1.7-.5 1.7-1.9v-3.5s-4.9-.7-8.9-2.5c-4.1-1.8-6.7-4.2-6.7-4.2l-2.2 4.2z"/><path opacity=".4" fill="#808184" enable-background="new" d="M2144.9 365.3l.2-.4 2-4c-1.6-1.1-2.6-1.9-2.6-1.9l-2.2 4.2c.1 0 1 .9 2.6 2.1z"/><path fill="#808184" d="M2117.4 366.1c-.1 0-.1 0 0 .1.1 0 .1-.1 0-.1z"/><path fill="#808184" d="M2120.1 371.2l1.6-2.2s-3.5-2.2-4.2-2.8c0 .3-.5 1.2-1.3 2.3.8.9 2 1.8 3.9 2.7z"/><path fill="#6C8F7F" d="M2157 369.3s-.3 6.8 0 10.3.5 5.2 2.2 5.4c1.7.3 4.9-3.1 5.5-7.9.7-4.8 0-10.7 0-10.7l-6.2-.7-1.5 3.6z"/><path fill="#6C8F7F" d="M2111.7 383s-1 2.1-2.3 3.7c-1.3 1.6-1.6 2.4-1.6 2.4l-13.9-12.6s1.6-1.8 3.8-1.6c2.2.2 8 3.9 8 3.9l3.3 2.4 2.7 1.8z"/><path fill="#81AFA2" d="M2117.4 350.2l3.8 10-5.4 6.3s1.3 2.2 5.4 4.2c4.1 2 9 .8 9 .8l4.8-4.6 4.6 1.6s3.2-1.1 4.6-3.9c1.4-2.9 3.2-6.2 3.2-6.2l-3.7-3.2s.4-3.4-.3-4.9c-.7-1.6-2.9-5.3-2.9-5.3l-23.1 5.2z"/><path opacity=".4" fill="#A5A8AB" enable-background="new" d="M2142.6 348.5c-.9-1.6-1.9-3.4-1.9-3.4l-23.1 5.3 1.3 3.5c5.2 1.8 13.1-1.6 13.1-1.6 5.7-1.7 8.9-3 10.6-3.8z"/><path fill="#8A5E3C" d="M2215.8 361.6l-6.5 14.5 3.7 3.6s4.3-11.7 7.6-15.2 1.2-1.7 1.2-1.7l-6-1.2z"/><path fill="#8A5E3C" d="M2250.8 353s2.9 3.4 7.5 4.7c4.6 1.4 8.3 1.5 8.3 1.5s-.6 6.3-1.6 6.1l-1.1-1.1s-2.1.6-6.1-.8c-4-1.4-9.1-5.4-9.1-5.4l2.1-5z"/><path opacity=".4" fill="#808184" enable-background="new" d="M2250.8 352.8l-2.1 5s1.1.9 2.7 2l.4-.5c1.1-1.3 2-2.4 2.8-3.5-2.4-1.3-3.8-3-3.8-3z"/><path opacity=".4" fill="#808184" enable-background="new" d="M2221.9 362.8l-6-1.3-1.5 3.3c1.1.3 3 .9 4.9 1.5.5-.7 1-1.4 1.4-1.9 3.2-3.4 1.2-1.6 1.2-1.6z"/><path fill="#EC6644" d="M2195.5 378.6s3.3 1.6 9 3.4c5.6 1.8 9.7 2.5 9.7 2.5s1.1-4.8-1.4-6.7c-2.5-1.9-5-3.5-10.9-2.7-6 .8-6.4 3.5-6.4 3.5z"/><path fill="#EC6644" d="M2263.1 363c0 .3.4 6.7 2.2 9.2s3.5 4.1 5.1 4.3c1.6.2 1.3 0 1.3 0s2.6-5.2 1.9-9.5l-.7-4.2.3-1.2-.8-3.5s-2.1-.7-4.4-.6c-2.4.1-2.6 1.5-2.6 1.5s-2.5 2.1-2.3 4z"/><path fill="#AFCCC0" d="M2220.7 345.9c-.2.3-6.5 17.7-6.5 17.7s4 1 7.7 2.5 6.3 2.4 6.3 2.4l2.4.9 4.4-8.9 6.9 4.5 1.6.8s2.2-.1 7.5-6.4c5.3-6.3 6.4-9.3 6.4-9.3s-2.9-.8-5.8-3.5c-3-2.8-4.9-5.6-4.9-5.6l-25.6 4.7-.4.2z"/><path opacity=".4" fill="#A5A8AB" enable-background="new" d="M2233.4 349c7.3-.4 15.2-5.3 15.2-5.3v-.2c-1.3-1.5-2-2.6-2-2.6l-25.6 4.7-.3.2c0 .1-.5 1.2-1.1 2.8.6.1 6.9.8 13.8.4z"/><circle fill="#B0CBAB" cx="2188.7" cy="353.3" r="11.3"/><path fill="#8A5E3C" d="M2266.6 327.7s-.5 8.1 0 9c.5.9 1 1.8 1.1 1.5.1-.3 0-2.2 0-2.2s2.2 3.2 3.1 4.4c.9 1.3 1.2 1.3 1.5 1 .3-.3-1.9-4.9-1.9-4.9s1-1.5 1.9-.1c.9 1.4 1.7 3.9 2.4 4l1.2-1.3-2.2-4.5s.2-.9.7-1l2.6 4.4s.5.4 1.1.1c.6-.3-.6-3.6-1.3-4.8-.7-1.2.1-.7.1-.7s1.8 3.1 2.2 3.4c.4.3.9-.5.5-1.3s-1.6-4.8-5.8-8c-4.2-3.3-5.3-3.2-5.3-3.2l-1.9 4.2z"/><path fill="#8A5E3C" d="M2190.6 325.7s.9-8 .5-9c-.4-.9-.9-1.8-1-1.5-.1.3-.1 2.2-.1 2.2s-2-3.3-2.8-4.6c-.8-1.3-1.1-1.3-1.4-1.1-.3.3 1.6 5 1.6 5s-1.1 1.4-1.9 0c-.8-1.4-1.5-4-2.2-4.2-.7-.1-1.3 1.2-1.3 1.2l2 4.6s-.2.9-.7 1c-.5.1-2.3-4.6-2.3-4.6s-.5-.4-1.1-.2c-.6.3.4 3.7 1 4.9.6 1.2-.1.7-.1.7s-1.6-3.2-2-3.5c-.4-.3-.9.5-.6 1.3.4.8 1.4 4.8 5.3 8.3 4 3.5 5.1 3.4 5.1 3.4l2-3.9z"/><path fill="#ECE3C2" d="M2142.9 326.7l10.5 4.5 2 12.5s-.8.9-1.3 1.7c-.5.8-.7 6.2 0 6.6.7.4 1.3 0 1.3 0s-.7-3 0-2.8c.7.3 1.1 7.1 1.5 7.4.4.3.9 0 .9 0v-4.3s-.1-.6.1-.7c.3 0 .9 1.9 1.2 3 .4 1.2.7 1.9 1 1.8l.6-.2s-.7-3-.8-3.6c-.2-.5-.4-1.3-.1-1.4.3 0 2.2 3.9 2.3 4.1.1.1.5.2.7.1.2-.1-1.4-3.8-1.6-4.2-.2-.4 0-.4.1-.4s2.3 3.3 2.4 3.5c.1.1.5.1.6 0 .1-.1-1.8-4-1.8-4s-1.1-5.5-1.6-6.6c-.5-1.1-.7-1.1-.7-1.1l-1.4-17-14-6.2-1.9 7.3z"/><path fill="#ECE3C2" d="M2098.1 322.9c-.3-.1-22.3 1.3-22.3 1.3s-6 .7-8.9 1.1c-2.9.5-5.5 1.6-5.7 2.1l.4.7 3.8-.3s.7 4.1.9 4.3c.2.1.4-.1 1.1 0 .7.1.1.9 1.4.9s1.6-.2 3.4-.7c1.7-.5 2.8-.5 3.6-1l2-1.6 21.6 1.1-1.3-7.9z"/><path fill="#5E5264" d="M2214.9 319.5s7.5-3.1 12.7-4c5.2-1 15.8-.8 15.8-.8l13.5 1.7 12.8 6.4s-1.7 5.1-2.2 5.5l-.5.4-10.7-5.2-10.7-.7s-.3 4.3.6 8.6c.9 4.2 2.6 10.9 2.6 10.9s-7.9 4.9-15.2 5.3l-13.9-.4s-2.5-5.7-3.1-8.6c-.6-2.9-.9-8.8-.9-8.8l-10.5 6.9-17.6-6.9s.3-1.1 1.3-2.5 1.8-2.3 2.1-2.7c.3-.4 12.2 5.4 12.2 5.4l11.7-10.5z"/><path fill="#EC6644" d="M2107.3 320.7c.4-.3 4-.4 11.4-2s16.3-1.6 16.3-1.6l12.4 2.5s-1.6 1.9-2 5.2c-.4 3.2-.8 4.2-.8 4.2l-6.4-1.1 5.4 17.5s2.5 1.4-12.6 5.8c0 0-8.8 3.8-13.9 1.3 0 0-3.5-9.6-5.4-13.4-1.8-3.8-4.1-7.1-4.1-7.1l-8.9-.1s-1.1-1.7-1.4-4.9c-.4-3.2 0-4.3 0-4.3l8.4-1.9 1.6-.1z"/><path fill="#8A5E3C" d="M2207.7 283c-.1.2-4.9 7.5-3.5 15.2 1.4 7.8 5.4 17.9 5.4 17.9s3 0 8.3-.6c5.3-.6 6.5-.9 6.5-.9l.5 2.2-2.6.8s1.9 7.2 4.6 7.2c2.7 0 6.8-6.3 7.2-7.8.4-1.5-1.9-1.8-1.9-1.8l-1.3-2.4 4.6-2s.7-3.7.9-6.9c.2-3.2-.4-5.9-.4-5.9s2.1-.1 3.1-.9.7-1.7 0-3.7c-.7-1.9-3.9-3.2-5.7-2.7-1.8.5.3-8.5-3-10.6-3.3-2.1-15.9-7.4-22.7 2.9z"/><path fill="#5F5133" d="M2200.3 293.8c0 .4 3.6-.3 9-2.4 5.4-2 12-7.6 12-7.6s1.9 5.2 5.8 7c3.9 1.7 6.4 2 6.4 2s0-1.2 2-1.4c2-.2 2.9 0 2.9 0s.8-6.9-3.6-11-9.1-4.1-9.1-4.1-2.3-5-9.7-4.3c-7.5.8-16.4 8.7-15.7 21.8z"/><path fill="#70513A" d="M2208.1 305.3s1.2 2.4 6.9 1.3c5.6-1 11.1-5.8 11.1-5.8s-7.3 7.5-9.4 8.4c0 0-.9-1.5-2.3-1.6-1.6 0-5.4-.8-6.3-2.3z"/><path fill="#70513A" d="M2225 300.3s.8.2 1 .5c.2.3.5 1.1.4 1.9 0 0 .8-1.5.4-2.3-.3-.8-1.4-.4-1.8-.1z"/><path fill="#70513A" d="M2207.8 306.3s-.2-.6.3-1.1c.6-.4 1.3 0 1.3 0s-1.1-1-1.8-.6.2 1.7.2 1.7z"/><path fill="#70513A" d="M2212.7 299.9c0-.2-1.1 3.5-1.1 3.5l3.3-.3s-1.4-.3-1.7-1c-.2-.6-.6-1.6-.5-2.2z"/><path fill="#4C3F28" d="M2218.1 295.3c0-.8.6-1.4 1.4-1.4.8 0 1.4.6 1.4 1.4v1.2c0 .8-.6 1.4-1.4 1.4-.8 0-1.4-.6-1.4-1.4v-1.2z"/><path fill="#4C3F28" d="M2206.1 297.1c0-.6.5-1.2 1.2-1.2.6 0 1.2.5 1.2 1.2v1c0 .6-.5 1.2-1.2 1.2-.6 0-1.2-.5-1.2-1.2v-1z"/><path fill="#5F5133" d="M2218.6 291.1s1.4-.7 2.3-.8c.9 0 1.7.8 1.7.8s-.2-1.8-1.7-1.9c-1.4-.1-2.3 1.9-2.3 1.9z"/><path fill="#5F5133" d="M2206.1 293.1s1.5-.7 2.3-.8c.9 0 2 .8 2 .8s-.7-2-2-2.1c-1.2 0-2.3 2.1-2.3 2.1z"/><path fill="#70513A" d="M2229.6 312.7c-13.5 3.6-19.7 3.3-19.8 3.5 0 0 5.5-.2 14.8-1.5l1.9-.3c.9-.5 2.2-1.1 3.1-1.7z"/><defs><path id="e" d="M2107.3 320.7c.4-.3 4-.4 11.4-2s16.3-1.6 16.3-1.6l12.4 2.5s-1.6 1.9-2 5.2c-.4 3.2-.8 4.2-.8 4.2l-6.4-1.1 5.4 17.5s2.5 1.4-12.6 5.8c0 0-8.8 3.8-13.9 1.3 0 0-3.5-9.6-5.4-13.4-1.8-3.8-4.1-7.1-4.1-7.1l-8.9-.1s-1.1-1.7-1.4-4.9c-.4-3.2 0-4.3 0-4.3l8.4-1.9 1.6-.1z"/></defs><clipPath id="f"><use xlink:href="#e" overflow="visible"/></clipPath><circle clip-path="url(#f)" fill="#F07B27" cx="2094.9" cy="318.3" r="3.3"/><defs><path id="g" d="M2107.3 320.7c.4-.3 4-.4 11.4-2s16.3-1.6 16.3-1.6l12.4 2.5s-1.6 1.9-2 5.2c-.4 3.2-.8 4.2-.8 4.2l-6.4-1.1 5.4 17.5s2.5 1.4-12.6 5.8c0 0-8.8 3.8-13.9 1.3 0 0-3.5-9.6-5.4-13.4-1.8-3.8-4.1-7.1-4.1-7.1l-8.9-.1s-1.1-1.7-1.4-4.9c-.4-3.2 0-4.3 0-4.3l8.4-1.9 1.6-.1z"/></defs><clipPath id="h"><use xlink:href="#g" overflow="visible"/></clipPath><path clip-path="url(#h)" fill="#F07B27" d="M2111.1 315.2c.3 1.8-.8 3.5-2.6 3.8s-3.5-.8-3.8-2.6c-.3-1.8.8-3.5 2.6-3.8 1.7-.3 3.4.8 3.8 2.6z"/><defs><path id="i" d="M2107.3 320.7c.4-.3 4-.4 11.4-2s16.3-1.6 16.3-1.6l12.4 2.5s-1.6 1.9-2 5.2c-.4 3.2-.8 4.2-.8 4.2l-6.4-1.1 5.4 17.5s2.5 1.4-12.6 5.8c0 0-8.8 3.8-13.9 1.3 0 0-3.5-9.6-5.4-13.4-1.8-3.8-4.1-7.1-4.1-7.1l-8.9-.1s-1.1-1.7-1.4-4.9c-.4-3.2 0-4.3 0-4.3l8.4-1.9 1.6-.1z"/></defs><clipPath id="j"><use xlink:href="#i" overflow="visible"/></clipPath><path clip-path="url(#j)" fill="#F07B27" d="M2124 312.8c.3 1.8-.8 3.5-2.6 3.8-1.8.3-3.5-.8-3.8-2.6-.3-1.8.8-3.5 2.6-3.8 1.7-.4 3.4.8 3.8 2.6z"/><defs><path id="k" d="M2107.3 320.7c.4-.3 4-.4 11.4-2s16.3-1.6 16.3-1.6l12.4 2.5s-1.6 1.9-2 5.2c-.4 3.2-.8 4.2-.8 4.2l-6.4-1.1 5.4 17.5s2.5 1.4-12.6 5.8c0 0-8.8 3.8-13.9 1.3 0 0-3.5-9.6-5.4-13.4-1.8-3.8-4.1-7.1-4.1-7.1l-8.9-.1s-1.1-1.7-1.4-4.9c-.4-3.2 0-4.3 0-4.3l8.4-1.9 1.6-.1z"/></defs><clipPath id="l"><use xlink:href="#k" overflow="visible"/></clipPath><path clip-path="url(#l)" fill="#F07B27" d="M2136.9 310.4c.3 1.8-.8 3.5-2.6 3.8-1.8.3-3.5-.8-3.8-2.6-.3-1.8.8-3.5 2.6-3.8 1.7-.4 3.4.8 3.8 2.6z"/><defs><path id="m" d="M2107.3 320.7c.4-.3 4-.4 11.4-2s16.3-1.6 16.3-1.6l12.4 2.5s-1.6 1.9-2 5.2c-.4 3.2-.8 4.2-.8 4.2l-6.4-1.1 5.4 17.5s2.5 1.4-12.6 5.8c0 0-8.8 3.8-13.9 1.3 0 0-3.5-9.6-5.4-13.4-1.8-3.8-4.1-7.1-4.1-7.1l-8.9-.1s-1.1-1.7-1.4-4.9c-.4-3.2 0-4.3 0-4.3l8.4-1.9 1.6-.1z"/></defs><clipPath id="n"><use xlink:href="#m" overflow="visible"/></clipPath><circle clip-path="url(#n)" fill="#F07B27" cx="2102.6" cy="323.4" r="3.3"/><defs><path id="o" d="M2107.3 320.7c.4-.3 4-.4 11.4-2s16.3-1.6 16.3-1.6l12.4 2.5s-1.6 1.9-2 5.2c-.4 3.2-.8 4.2-.8 4.2l-6.4-1.1 5.4 17.5s2.5 1.4-12.6 5.8c0 0-8.8 3.8-13.9 1.3 0 0-3.5-9.6-5.4-13.4-1.8-3.8-4.1-7.1-4.1-7.1l-8.9-.1s-1.1-1.7-1.4-4.9c-.4-3.2 0-4.3 0-4.3l8.4-1.9 1.6-.1z"/></defs><clipPath id="p"><use xlink:href="#o" overflow="visible"/></clipPath><path clip-path="url(#p)" fill="#F07B27" d="M2118.7 320.4c.3 1.8-.8 3.5-2.6 3.8-1.8.3-3.5-.8-3.8-2.6-.3-1.8.8-3.5 2.6-3.8 1.8-.4 3.5.8 3.8 2.6z"/><defs><path id="q" d="M2107.3 320.7c.4-.3 4-.4 11.4-2s16.3-1.6 16.3-1.6l12.4 2.5s-1.6 1.9-2 5.2c-.4 3.2-.8 4.2-.8 4.2l-6.4-1.1 5.4 17.5s2.5 1.4-12.6 5.8c0 0-8.8 3.8-13.9 1.3 0 0-3.5-9.6-5.4-13.4-1.8-3.8-4.1-7.1-4.1-7.1l-8.9-.1s-1.1-1.7-1.4-4.9c-.4-3.2 0-4.3 0-4.3l8.4-1.9 1.6-.1z"/></defs><clipPath id="r"><use xlink:href="#q" overflow="visible"/></clipPath><circle clip-path="url(#r)" fill="#F07B27" cx="2128.4" cy="318.5" r="3.3"/><defs><path id="s" d="M2107.3 320.7c.4-.3 4-.4 11.4-2s16.3-1.6 16.3-1.6l12.4 2.5s-1.6 1.9-2 5.2c-.4 3.2-.8 4.2-.8 4.2l-6.4-1.1 5.4 17.5s2.5 1.4-12.6 5.8c0 0-8.8 3.8-13.9 1.3 0 0-3.5-9.6-5.4-13.4-1.8-3.8-4.1-7.1-4.1-7.1l-8.9-.1s-1.1-1.7-1.4-4.9c-.4-3.2 0-4.3 0-4.3l8.4-1.9 1.6-.1z"/></defs><clipPath id="t"><use xlink:href="#s" overflow="visible"/></clipPath><path clip-path="url(#t)" fill="#F07B27" d="M2144.5 315.5c.3 1.8-.8 3.5-2.6 3.8-1.8.3-3.5-.8-3.8-2.6-.3-1.8.8-3.5 2.6-3.8 1.8-.4 3.5.8 3.8 2.6z"/><defs><path id="u" d="M2107.3 320.7c.4-.3 4-.4 11.4-2s16.3-1.6 16.3-1.6l12.4 2.5s-1.6 1.9-2 5.2c-.4 3.2-.8 4.2-.8 4.2l-6.4-1.1 5.4 17.5s2.5 1.4-12.6 5.8c0 0-8.8 3.8-13.9 1.3 0 0-3.5-9.6-5.4-13.4-1.8-3.8-4.1-7.1-4.1-7.1l-8.9-.1s-1.1-1.7-1.4-4.9c-.4-3.2 0-4.3 0-4.3l8.4-1.9 1.6-.1z"/></defs><clipPath id="v"><use xlink:href="#u" overflow="visible"/></clipPath><path clip-path="url(#v)" fill="#F07B27" d="M2100.5 330.3c.3 1.8-.8 3.5-2.6 3.8-1.8.3-3.5-.8-3.8-2.6-.3-1.8.8-3.5 2.6-3.8 1.8-.3 3.5.9 3.8 2.6z"/><defs><path id="w" d="M2107.3 320.7c.4-.3 4-.4 11.4-2s16.3-1.6 16.3-1.6l12.4 2.5s-1.6 1.9-2 5.2c-.4 3.2-.8 4.2-.8 4.2l-6.4-1.1 5.4 17.5s2.5 1.4-12.6 5.8c0 0-8.8 3.8-13.9 1.3 0 0-3.5-9.6-5.4-13.4-1.8-3.8-4.1-7.1-4.1-7.1l-8.9-.1s-1.1-1.7-1.4-4.9c-.4-3.2 0-4.3 0-4.3l8.4-1.9 1.6-.1z"/></defs><clipPath id="x"><use xlink:href="#w" overflow="visible"/></clipPath><path clip-path="url(#x)" fill="#F07B27" d="M2113.4 327.9c.3 1.8-.8 3.5-2.6 3.8-1.8.3-3.5-.8-3.8-2.6-.3-1.8.8-3.5 2.6-3.8 1.8-.3 3.5.8 3.8 2.6z"/><defs><path id="y" d="M2107.3 320.7c.4-.3 4-.4 11.4-2s16.3-1.6 16.3-1.6l12.4 2.5s-1.6 1.9-2 5.2c-.4 3.2-.8 4.2-.8 4.2l-6.4-1.1 5.4 17.5s2.5 1.4-12.6 5.8c0 0-8.8 3.8-13.9 1.3 0 0-3.5-9.6-5.4-13.4-1.8-3.8-4.1-7.1-4.1-7.1l-8.9-.1s-1.1-1.7-1.4-4.9c-.4-3.2 0-4.3 0-4.3l8.4-1.9 1.6-.1z"/></defs><clipPath id="z"><use xlink:href="#y" overflow="visible"/></clipPath><path clip-path="url(#z)" fill="#F07B27" d="M2126.3 325.5c.3 1.8-.8 3.5-2.6 3.8-1.8.3-3.5-.8-3.8-2.6-.3-1.8.8-3.5 2.6-3.8 1.8-.4 3.5.8 3.8 2.6z"/><defs><path id="A" d="M2107.3 320.7c.4-.3 4-.4 11.4-2s16.3-1.6 16.3-1.6l12.4 2.5s-1.6 1.9-2 5.2c-.4 3.2-.8 4.2-.8 4.2l-6.4-1.1 5.4 17.5s2.5 1.4-12.6 5.8c0 0-8.8 3.8-13.9 1.3 0 0-3.5-9.6-5.4-13.4-1.8-3.8-4.1-7.1-4.1-7.1l-8.9-.1s-1.1-1.7-1.4-4.9c-.4-3.2 0-4.3 0-4.3l8.4-1.9 1.6-.1z"/></defs><clipPath id="B"><use xlink:href="#A" overflow="visible"/></clipPath><circle clip-path="url(#B)" fill="#F07B27" cx="2136" cy="323.7" r="3.3"/><defs><path id="C" d="M2107.3 320.7c.4-.3 4-.4 11.4-2s16.3-1.6 16.3-1.6l12.4 2.5s-1.6 1.9-2 5.2c-.4 3.2-.8 4.2-.8 4.2l-6.4-1.1 5.4 17.5s2.5 1.4-12.6 5.8c0 0-8.8 3.8-13.9 1.3 0 0-3.5-9.6-5.4-13.4-1.8-3.8-4.1-7.1-4.1-7.1l-8.9-.1s-1.1-1.7-1.4-4.9c-.4-3.2 0-4.3 0-4.3l8.4-1.9 1.6-.1z"/></defs><clipPath id="D"><use xlink:href="#C" overflow="visible"/></clipPath><path clip-path="url(#D)" fill="#F07B27" d="M2108.2 335.5c.3 1.8-.8 3.5-2.6 3.8-1.8.3-3.5-.8-3.8-2.6-.3-1.8.8-3.5 2.6-3.8 1.7-.4 3.4.8 3.8 2.6z"/><defs><path id="E" d="M2107.3 320.7c.4-.3 4-.4 11.4-2s16.3-1.6 16.3-1.6l12.4 2.5s-1.6 1.9-2 5.2c-.4 3.2-.8 4.2-.8 4.2l-6.4-1.1 5.4 17.5s2.5 1.4-12.6 5.8c0 0-8.8 3.8-13.9 1.3 0 0-3.5-9.6-5.4-13.4-1.8-3.8-4.1-7.1-4.1-7.1l-8.9-.1s-1.1-1.7-1.4-4.9c-.4-3.2 0-4.3 0-4.3l8.4-1.9 1.6-.1z"/></defs><clipPath id="F"><use xlink:href="#E" overflow="visible"/></clipPath><circle clip-path="url(#F)" fill="#F07B27" cx="2117.9" cy="333.6" r="3.3"/><defs><path id="G" d="M2107.3 320.7c.4-.3 4-.4 11.4-2s16.3-1.6 16.3-1.6l12.4 2.5s-1.6 1.9-2 5.2c-.4 3.2-.8 4.2-.8 4.2l-6.4-1.1 5.4 17.5s2.5 1.4-12.6 5.8c0 0-8.8 3.8-13.9 1.3 0 0-3.5-9.6-5.4-13.4-1.8-3.8-4.1-7.1-4.1-7.1l-8.9-.1s-1.1-1.7-1.4-4.9c-.4-3.2 0-4.3 0-4.3l8.4-1.9 1.6-.1z"/></defs><clipPath id="H"><use xlink:href="#G" overflow="visible"/></clipPath><path clip-path="url(#H)" fill="#F07B27" d="M2134 330.6c.3 1.8-.8 3.5-2.6 3.8-1.8.3-3.5-.8-3.8-2.6-.3-1.8.8-3.5 2.6-3.8 1.7-.3 3.5.8 3.8 2.6z"/><defs><path id="I" d="M2107.3 320.7c.4-.3 4-.4 11.4-2s16.3-1.6 16.3-1.6l12.4 2.5s-1.6 1.9-2 5.2c-.4 3.2-.8 4.2-.8 4.2l-6.4-1.1 5.4 17.5s2.5 1.4-12.6 5.8c0 0-8.8 3.8-13.9 1.3 0 0-3.5-9.6-5.4-13.4-1.8-3.8-4.1-7.1-4.1-7.1l-8.9-.1s-1.1-1.7-1.4-4.9c-.4-3.2 0-4.3 0-4.3l8.4-1.9 1.6-.1z"/></defs><clipPath id="J"><use xlink:href="#I" overflow="visible"/></clipPath><circle clip-path="url(#J)" fill="#F07B27" cx="2143.7" cy="328.8" r="3.3"/><defs><path id="K" d="M2107.3 320.7c.4-.3 4-.4 11.4-2s16.3-1.6 16.3-1.6l12.4 2.5s-1.6 1.9-2 5.2c-.4 3.2-.8 4.2-.8 4.2l-6.4-1.1 5.4 17.5s2.5 1.4-12.6 5.8c0 0-8.8 3.8-13.9 1.3 0 0-3.5-9.6-5.4-13.4-1.8-3.8-4.1-7.1-4.1-7.1l-8.9-.1s-1.1-1.7-1.4-4.9c-.4-3.2 0-4.3 0-4.3l8.4-1.9 1.6-.1z"/></defs><clipPath id="L"><use xlink:href="#K" overflow="visible"/></clipPath><path clip-path="url(#L)" fill="#F07B27" d="M2102.9 342.7c.3 1.8-.8 3.5-2.6 3.8s-3.5-.8-3.8-2.6c-.3-1.8.8-3.5 2.6-3.8 1.7-.3 3.4.8 3.8 2.6z"/><defs><path id="M" d="M2107.3 320.7c.4-.3 4-.4 11.4-2s16.3-1.6 16.3-1.6l12.4 2.5s-1.6 1.9-2 5.2c-.4 3.2-.8 4.2-.8 4.2l-6.4-1.1 5.4 17.5s2.5 1.4-12.6 5.8c0 0-8.8 3.8-13.9 1.3 0 0-3.5-9.6-5.4-13.4-1.8-3.8-4.1-7.1-4.1-7.1l-8.9-.1s-1.1-1.7-1.4-4.9c-.4-3.2 0-4.3 0-4.3l8.4-1.9 1.6-.1z"/></defs><clipPath id="N"><use xlink:href="#M" overflow="visible"/></clipPath><circle clip-path="url(#N)" fill="#F07B27" cx="2112.5" cy="340.9" r="3.3"/><defs><path id="O" d="M2107.3 320.7c.4-.3 4-.4 11.4-2s16.3-1.6 16.3-1.6l12.4 2.5s-1.6 1.9-2 5.2c-.4 3.2-.8 4.2-.8 4.2l-6.4-1.1 5.4 17.5s2.5 1.4-12.6 5.8c0 0-8.8 3.8-13.9 1.3 0 0-3.5-9.6-5.4-13.4-1.8-3.8-4.1-7.1-4.1-7.1l-8.9-.1s-1.1-1.7-1.4-4.9c-.4-3.2 0-4.3 0-4.3l8.4-1.9 1.6-.1z"/></defs><clipPath id="P"><use xlink:href="#O" overflow="visible"/></clipPath><path clip-path="url(#P)" fill="#F07B27" d="M2128.7 337.9c.3 1.8-.8 3.5-2.6 3.8-1.8.3-3.5-.8-3.8-2.6-.3-1.8.8-3.5 2.6-3.8 1.7-.4 3.4.8 3.8 2.6z"/><defs><path id="Q" d="M2107.3 320.7c.4-.3 4-.4 11.4-2s16.3-1.6 16.3-1.6l12.4 2.5s-1.6 1.9-2 5.2c-.4 3.2-.8 4.2-.8 4.2l-6.4-1.1 5.4 17.5s2.5 1.4-12.6 5.8c0 0-8.8 3.8-13.9 1.3 0 0-3.5-9.6-5.4-13.4-1.8-3.8-4.1-7.1-4.1-7.1l-8.9-.1s-1.1-1.7-1.4-4.9c-.4-3.2 0-4.3 0-4.3l8.4-1.9 1.6-.1z"/></defs><clipPath id="R"><use xlink:href="#Q" overflow="visible"/></clipPath><circle clip-path="url(#R)" fill="#F07B27" cx="2138.4" cy="336" r="3.3"/><defs><path id="S" d="M2107.3 320.7c.4-.3 4-.4 11.4-2s16.3-1.6 16.3-1.6l12.4 2.5s-1.6 1.9-2 5.2c-.4 3.2-.8 4.2-.8 4.2l-6.4-1.1 5.4 17.5s2.5 1.4-12.6 5.8c0 0-8.8 3.8-13.9 1.3 0 0-3.5-9.6-5.4-13.4-1.8-3.8-4.1-7.1-4.1-7.1l-8.9-.1s-1.1-1.7-1.4-4.9c-.4-3.2 0-4.3 0-4.3l8.4-1.9 1.6-.1z"/></defs><clipPath id="T"><use xlink:href="#S" overflow="visible"/></clipPath><path clip-path="url(#T)" fill="#F07B27" d="M2110.5 347.8c.3 1.8-.8 3.5-2.6 3.8-1.8.3-3.5-.8-3.8-2.6-.3-1.8.8-3.5 2.6-3.8 1.8-.3 3.5.9 3.8 2.6z"/><defs><path id="U" d="M2107.3 320.7c.4-.3 4-.4 11.4-2s16.3-1.6 16.3-1.6l12.4 2.5s-1.6 1.9-2 5.2c-.4 3.2-.8 4.2-.8 4.2l-6.4-1.1 5.4 17.5s2.5 1.4-12.6 5.8c0 0-8.8 3.8-13.9 1.3 0 0-3.5-9.6-5.4-13.4-1.8-3.8-4.1-7.1-4.1-7.1l-8.9-.1s-1.1-1.7-1.4-4.9c-.4-3.2 0-4.3 0-4.3l8.4-1.9 1.6-.1z"/></defs><clipPath id="V"><use xlink:href="#U" overflow="visible"/></clipPath><circle clip-path="url(#V)" fill="#F07B27" cx="2120.2" cy="346" r="3.3"/><defs><path id="W" d="M2107.3 320.7c.4-.3 4-.4 11.4-2s16.3-1.6 16.3-1.6l12.4 2.5s-1.6 1.9-2 5.2c-.4 3.2-.8 4.2-.8 4.2l-6.4-1.1 5.4 17.5s2.5 1.4-12.6 5.8c0 0-8.8 3.8-13.9 1.3 0 0-3.5-9.6-5.4-13.4-1.8-3.8-4.1-7.1-4.1-7.1l-8.9-.1s-1.1-1.7-1.4-4.9c-.4-3.2 0-4.3 0-4.3l8.4-1.9 1.6-.1z"/></defs><clipPath id="X"><use xlink:href="#W" overflow="visible"/></clipPath><path clip-path="url(#X)" fill="#F07B27" d="M2136.3 343c.3 1.8-.8 3.5-2.6 3.8-1.8.3-3.5-.8-3.8-2.6-.3-1.8.8-3.5 2.6-3.8 1.8-.4 3.5.8 3.8 2.6z"/><defs><path id="Y" d="M2107.3 320.7c.4-.3 4-.4 11.4-2s16.3-1.6 16.3-1.6l12.4 2.5s-1.6 1.9-2 5.2c-.4 3.2-.8 4.2-.8 4.2l-6.4-1.1 5.4 17.5s2.5 1.4-12.6 5.8c0 0-8.8 3.8-13.9 1.3 0 0-3.5-9.6-5.4-13.4-1.8-3.8-4.1-7.1-4.1-7.1l-8.9-.1s-1.1-1.7-1.4-4.9c-.4-3.2 0-4.3 0-4.3l8.4-1.9 1.6-.1z"/></defs><clipPath id="Z"><use xlink:href="#Y" overflow="visible"/></clipPath><circle clip-path="url(#Z)" fill="#F07B27" cx="2146" cy="341.2" r="3.3"/><defs><path id="aa" d="M2107.3 320.7c.4-.3 4-.4 11.4-2s16.3-1.6 16.3-1.6l12.4 2.5s-1.6 1.9-2 5.2c-.4 3.2-.8 4.2-.8 4.2l-6.4-1.1 5.4 17.5s2.5 1.4-12.6 5.8c0 0-8.8 3.8-13.9 1.3 0 0-3.5-9.6-5.4-13.4-1.8-3.8-4.1-7.1-4.1-7.1l-8.9-.1s-1.1-1.7-1.4-4.9c-.4-3.2 0-4.3 0-4.3l8.4-1.9 1.6-.1z"/></defs><clipPath id="ab"><use xlink:href="#aa" overflow="visible"/></clipPath><path clip-path="url(#ab)" fill="#F07B27" d="M2105.2 355.4c.3 1.8-.8 3.5-2.6 3.8-1.8.3-3.5-.8-3.8-2.6-.3-1.8.8-3.5 2.6-3.8 1.8-.4 3.5.8 3.8 2.6z"/><defs><path id="ac" d="M2107.3 320.7c.4-.3 4-.4 11.4-2s16.3-1.6 16.3-1.6l12.4 2.5s-1.6 1.9-2 5.2c-.4 3.2-.8 4.2-.8 4.2l-6.4-1.1 5.4 17.5s2.5 1.4-12.6 5.8c0 0-8.8 3.8-13.9 1.3 0 0-3.5-9.6-5.4-13.4-1.8-3.8-4.1-7.1-4.1-7.1l-8.9-.1s-1.1-1.7-1.4-4.9c-.4-3.2 0-4.3 0-4.3l8.4-1.9 1.6-.1z"/></defs><clipPath id="ad"><use xlink:href="#ac" overflow="visible"/></clipPath><path clip-path="url(#ad)" fill="#F07B27" d="M2118.2 353c.3 1.8-.8 3.5-2.6 3.8-1.8.3-3.5-.8-3.8-2.6-.3-1.8.8-3.5 2.6-3.8 1.7-.4 3.4.8 3.8 2.6z"/><defs><path id="ae" d="M2107.3 320.7c.4-.3 4-.4 11.4-2s16.3-1.6 16.3-1.6l12.4 2.5s-1.6 1.9-2 5.2c-.4 3.2-.8 4.2-.8 4.2l-6.4-1.1 5.4 17.5s2.5 1.4-12.6 5.8c0 0-8.8 3.8-13.9 1.3 0 0-3.5-9.6-5.4-13.4-1.8-3.8-4.1-7.1-4.1-7.1l-8.9-.1s-1.1-1.7-1.4-4.9c-.4-3.2 0-4.3 0-4.3l8.4-1.9 1.6-.1z"/></defs><clipPath id="af"><use xlink:href="#ae" overflow="visible"/></clipPath><path clip-path="url(#af)" fill="#F07B27" d="M2131.1 350.5c.3 1.8-.8 3.5-2.6 3.8-1.8.3-3.5-.8-3.8-2.6-.3-1.8.8-3.5 2.6-3.8 1.7-.3 3.4.9 3.8 2.6z"/><defs><path id="ag" d="M2107.3 320.7c.4-.3 4-.4 11.4-2s16.3-1.6 16.3-1.6l12.4 2.5s-1.6 1.9-2 5.2c-.4 3.2-.8 4.2-.8 4.2l-6.4-1.1 5.4 17.5s2.5 1.4-12.6 5.8c0 0-8.8 3.8-13.9 1.3 0 0-3.5-9.6-5.4-13.4-1.8-3.8-4.1-7.1-4.1-7.1l-8.9-.1s-1.1-1.7-1.4-4.9c-.4-3.2 0-4.3 0-4.3l8.4-1.9 1.6-.1z"/></defs><clipPath id="ah"><use xlink:href="#ag" overflow="visible"/></clipPath><circle clip-path="url(#ah)" fill="#F07B27" cx="2140.7" cy="348.7" r="3.3"/><defs><path id="ai" d="M2107.3 320.7c.4-.3 4-.4 11.4-2s16.3-1.6 16.3-1.6l12.4 2.5s-1.6 1.9-2 5.2c-.4 3.2-.8 4.2-.8 4.2l-6.4-1.1 5.4 17.5s2.5 1.4-12.6 5.8c0 0-8.8 3.8-13.9 1.3 0 0-3.5-9.6-5.4-13.4-1.8-3.8-4.1-7.1-4.1-7.1l-8.9-.1s-1.1-1.7-1.4-4.9c-.4-3.2 0-4.3 0-4.3l8.4-1.9 1.6-.1z"/></defs><clipPath id="aj"><use xlink:href="#ai" overflow="visible"/></clipPath><circle clip-path="url(#aj)" fill="#F07B27" cx="2109.7" cy="361.1" r="3.3"/><defs><path id="ak" d="M2107.3 320.7c.4-.3 4-.4 11.4-2s16.3-1.6 16.3-1.6l12.4 2.5s-1.6 1.9-2 5.2c-.4 3.2-.8 4.2-.8 4.2l-6.4-1.1 5.4 17.5s2.5 1.4-12.6 5.8c0 0-8.8 3.8-13.9 1.3 0 0-3.5-9.6-5.4-13.4-1.8-3.8-4.1-7.1-4.1-7.1l-8.9-.1s-1.1-1.7-1.4-4.9c-.4-3.2 0-4.3 0-4.3l8.4-1.9 1.6-.1z"/></defs><clipPath id="al"><use xlink:href="#ak" overflow="visible"/></clipPath><path clip-path="url(#al)" fill="#F07B27" d="M2125.8 358.1c.3 1.8-.8 3.5-2.6 3.8-1.8.3-3.5-.8-3.8-2.6-.3-1.8.8-3.5 2.6-3.8 1.8-.4 3.5.8 3.8 2.6z"/><defs><path id="am" d="M2107.3 320.7c.4-.3 4-.4 11.4-2s16.3-1.6 16.3-1.6l12.4 2.5s-1.6 1.9-2 5.2c-.4 3.2-.8 4.2-.8 4.2l-6.4-1.1 5.4 17.5s2.5 1.4-12.6 5.8c0 0-8.8 3.8-13.9 1.3 0 0-3.5-9.6-5.4-13.4-1.8-3.8-4.1-7.1-4.1-7.1l-8.9-.1s-1.1-1.7-1.4-4.9c-.4-3.2 0-4.3 0-4.3l8.4-1.9 1.6-.1z"/></defs><clipPath id="an"><use xlink:href="#am" overflow="visible"/></clipPath><circle clip-path="url(#an)" fill="#F07B27" cx="2135.5" cy="356.3" r="3.3"/><defs><path id="ao" d="M2107.3 320.7c.4-.3 4-.4 11.4-2s16.3-1.6 16.3-1.6l12.4 2.5s-1.6 1.9-2 5.2c-.4 3.2-.8 4.2-.8 4.2l-6.4-1.1 5.4 17.5s2.5 1.4-12.6 5.8c0 0-8.8 3.8-13.9 1.3 0 0-3.5-9.6-5.4-13.4-1.8-3.8-4.1-7.1-4.1-7.1l-8.9-.1s-1.1-1.7-1.4-4.9c-.4-3.2 0-4.3 0-4.3l8.4-1.9 1.6-.1z"/></defs><clipPath id="ap"><use xlink:href="#ao" overflow="visible"/></clipPath><path clip-path="url(#ap)" fill="#F07B27" d="M2151.6 353.2c.3 1.8-.8 3.5-2.6 3.8s-3.5-.8-3.8-2.6c-.3-1.8.8-3.5 2.6-3.8 1.8-.3 3.5.8 3.8 2.6z"/><path fill="#ECE3C2" d="M2112.4 314.7l4.3 4.5-3.2 2.2s3.4.9 5.1 1.8l1.7.9s3-4.2 4.6-4.7l1.6-.5-4.9-.7-2.2-5-7 1.5z"/><path fill="#E7E6E6" d="M2112.4 314.8l2.2 2.2c2.1.1 4.2.1 5.9-.1l.6-.1-1.5-3.5-7.2 1.5z"/><path fill="#ECE3C2" d="M2107.6 287.4s-1.9.4-2.2 2.7c-.3 2.3 0 4.4 0 4.4s-5.3-2.5-5.3 2.5l4.5 3.9s.1 5.3.8 9.7c.7 4.3 1.4 5 1.4 5s8.7 1.3 13.7.7c5-.7 9.3-2.8 9.3-2.8s1.7-25.9-1.4-31.7c-3.2-5.9-20.8 5.6-20.8 5.6z"/><path fill="#C9A559" d="M2103.4 293.1s3-1.6 10.1-3l12.9-.9s1.6-4.2 1.7-3.8c.1.4.9 3.8.9 3.8s.5.5 1.7.9 1.2.9 1.2.9 2.8-.9 2.2-3.8c-.5-2.9-5.4-10.5-10.9-10.3-5.5.2-6.3 1.8-6.3 1.8l.4-2.8-2.4 3.5s-3.9-.5-8.3 3.5c-4.3 4.1-3.2 10.2-3.2 10.2z"/><path fill="#C9A559" d="M2115.9 292.1c.1 0 1.8-.6 3.3-.8 1.5-.1 2.5 0 2.5 0s-.4-1.2-2.2-1.2c-1.7.1-3.6 2-3.6 2z"/><path fill="#C9A559" d="M2126.6 291.9l3 1.3s-.9-1.8-1.7-2c-.8-.4-1.3.7-1.3.7z"/><polygon points="2117.1,295.2 2120.3,294.8 2118.7,293.5" fill="none"/><path d="M2127.3 295.8c.2 0 2.3.8 2.3.8s-.2-1.1-.8-1.4c-.5-.3-1.5.6-1.5.6z" fill="none"/><path fill="#A3763B" d="M2121 298.3c0 .6-.5 1.1-1.1 1.1-.6 0-1.1-.5-1.1-1.1v-1.3c0-.6.5-1.1 1.1-1.1.6 0 1.1.5 1.1 1.1v1.3z"/><path fill="#A3763B" d="M2129 299.3c0 .5-.4.9-.9.9s-.9-.4-.9-.9v-.9c0-.5.4-.9.9-.9s.9.4.9.9v.9z"/><path fill="#CAB197" d="M2122.9 304.4h3.2l-1.6-2.1s.4.5.2 1c-.3.7-1.8 1.1-1.8 1.1z"/><path fill="#CAB197" d="M2113 304.8s4.2 2.4 7.9 2.8c3.8.3 6.4 0 6.4 0s-2.2 1-2.8 1.6c-.7.7-.8 1.9-.8 1.9s-7.5-2.3-10.7-6.1v-.2z"/><path fill="#E7E6E6" d="M2112.7 306.3s-.3-1.2.3-1.7c.7-.5 1.1-.2 1.1-.2s-1-.9-1.7-.5.3 2.4.3 2.4z"/><path fill="#E7E6E6" d="M2126.8 307c.1 0 .4.2.5.6.1.3 0 1.2 0 1.2s.5-.5.5-1c0-.6-1-.8-1-.8z"/><path fill="#838339" d="M0 156.3s946.9-47.7 1439.8 79.8c492.9 127.4-1257.8 441-1439.8 472.9v-552.7z"/><path fill="#97984C" d="M1125.6 468.6c-25.9-106.7-151.8-253.2-618.5-320.6-64-.7-124.8-.6-180.7-.1 186.8 27.2 716.3 131.8 408.5 415.3 134.9-29.8 270.6-62 390.7-94.6z"/><path fill="#97984C" d="M1496.3 331.4c-40-32.2-170.4-103.7-577.9-168.4-39.2-2.7-78.6-4.9-117.8-6.8 147.1 26.4 481.2 100.2 563.3 238.3 58.6-21.7 104.5-42.9 132.4-63.1z"/><path fill="#97984C" d="M0 709s186.5-34.1 359.6-68c388.9-321.2-24.7-458-154.7-491.3-31.4.7-59.9 1.4-85 2.1 386.3 219.2-119.9 557.2-119.9 557.2z"/><ellipse opacity=".2" fill="#231F20" enable-background="new" cx="1172.6" cy="403.3" rx="102" ry="8"/><path fill="#548962" d="M1223.9 226.6s1-7.2-2.7-10-4.9 1.7-8.8 0c-3.9-1.7-2.6-6.3-8.1-5.4-5.5.9-5.3 2.5-8.9 1.1-3.6-1.4-.8-.8-5.5 1.3s-5.5 2.8-2.8 3c2.8.2 6.6-.1 7.4 1.1.8 1.2-.4 1.4 3.9 1.1 4.3-.3 2.2 2.4 7.3 3.5s5.4-1.7 6.6 0c1.2 1.7-3.9 7.2 1.4 8.9 5.3 1.7 13.3 1.7 10.2-4.6z"/><path fill="#548962" d="M1243.8 226.6c-.7 0-3-11.2 0-15.3 3-4.2 6.9.1 9.4-5.8s-1.8-8.7 7-10.1c8.8-1.5 8.2-.8 12.6-2.3 4.4-1.5 3.4 1.1 0 3.2s-1.8 9.4-10.6 13c-8.8 3.6-4.9 5.4-8.2 11-3.3 5.6-6.4 6.5-10.2 6.3z"/><path fill="#548962" d="M1317.4 212.6s-4.7 2.6-11.2 2.5c-6.6-.1-7-2.4-12.5 0s-3.4 8.3-8.2 7.9-9.8-1.5-10.9 2.1c-1.1 3.6-9.8 5.6-12.9 4.7-3.1-.9-1.4-12 4.1-14.7 5.5-2.7 9.9-1 12.5-5.4 2.5-4.4 6.4-2.7 10.5-3 4.1-.2 1.8-3 9.8-3.4 8-.4 25 5.7 18.8 9.3z"/><path fill="#548962" d="M1081.7 121.4s-5.2-10.7-2-13.1c3.2-2.4 5-1.8 5.9-7.1.9-5.3 1.3-7.5 4.9-9.8 3.6-2.3 3.6-5.3 3.4-9.3-.2-4 3.2 2.5 3 5.3-.2 2.8 2.3 9 0 13.7-2.3 4.7-.9 7.5-3 10.6-2.1 3.2-7.9 9.4-11.2 10.6-3.3 1.2-1-.9-1-.9z"/><path fill="#548962" d="M1089.4 124.3c.4.6 3.1 6.2 8.5 7 5.3.9 7.5-3.1 9.3.9s3.7 7.6 7.3 7.4c3.6-.2 4.4-2.3 6.3 0 1.9 2.3 3.8-.2 1.1-3.7s-.2-8-5.1-10.3c-4.9-2.3-5.1 2-8-1.3-3-3.3-3.7-5.6-11.6-5.3-8 .3-9.3 2.7-7.8 5.3z"/><path fill="#548962" d="M1085.6 122.7s13.4.8 14.7-3.5c1.3-4.3.1-3.5 4.1-2.2s7.3 0 8.8-2.7c1.5-2.7 1.9-3.8 6.4-2.7 4.6 1.1 1.8-3.2 6-7l4.2-3.8s-.6-.7-5.3 2.2-6.6-.3-10.1 1.6c-3.6 1.9-3.4.6-8 1.3-4.7.6-4.7 4-7.6 4.9-2.9.9-5.8-1.9-9.4 2.3-3.5 4-6.8 7.3-3.8 9.6z"/><polygon fill="#CBB199" points="1212.6,346 1214,376.4 1205,378.1 1201.9,346"/><polygon fill="#CBB199" points="1146.6,372.4 1152.3,342.4 1143.6,339.5 1136,370.9"/><path fill="#CBB199" d="M1218.3 124.7c1.7.5 35 75.5 35 75.5l-63.3 11s-4.9-11-4.2-11l46.9-10.7-21.8-47.4v-23l7.4 5.6z"/><path fill="#CBB199" d="M1149.2 139.3c.3.8-29.9 54.7-29.9 54.7s-3.7 2.5-5.9 2c-2.3-.6-24-40.3-24-40.3l6.8-3.7 16.4 24.2 27.1-54.7s3.4-.8 7.6-2.4c4.2-1.5 1.9 20.2 1.9 20.2z"/><path fill="#4E614B" d="M1222.5 116.5l-22.5-9.2-12.7-3.4s-6.4-.5-10.8-1c-4.5-.5-13.5 2.8-13.5 2.8l-29 8.2 11.3 28.8 6.9 3.3s3 22.6 1.8 38.1l-1.3 16.5-.4 12.8-24.2 124.6s18.9 12.7 55.3 12.1c36.4-.6 40.6-4.2 40.6-4.2l-22.3-134.7s-4.5-23.7-3.1-27.6c1.4-3.9 9.3-38.9 9.3-38.9l5.9 1.9 8.7-30.1z"/><path fill="#9D4E6F" d="M1250.4 250.4s13.3-43.8 55.8-40.8c0 0-21.1-4.2-37.2 10.6s-18.6 30.2-18.6 30.2z"/><path fill="#9D4E6F" d="M1243.9 244.3s.2-33.6 23-46.9c0-.1-23.5 7.5-23 46.9z"/><path fill="#9D4E6F" d="M1225 240s-1.8-26.7-29.6-24.9c0 0 23.7-1.7 29.6 24.9z"/><path fill="#548962" d="M1238.9 225.5c.4-1.1 3.9-11.8-1.3-15.9l-5.1-4.2c-.8-2.7-1.9-6.3-7.4-6.6-5.5-.3-4.7-2.5-9.3-2.7-4.7-.2-3.8 1.9-1.1 4.2 2.7 2.3 2.2 6.6 4.5 9.2s6.1.1 7.9 3c1.8 3-1.2 11.7 3 14 4.2 2.3 7.3 3.5 8.8-1z"/><path fill="#856566" d="M1245.4 42.2s-28-9.5-63.9 0-46.2 21.8-51 24.7l-.8 8.5 118.3-23.6s-.8-6.9-2.6-9.6z"/><path fill="#856566" d="M1201.3 43.3s-4.8-11.9-6.6-13.2c-1.8-1.3-5-1.6-18.7 4.2-13.7 5.8-14 7.7-14 7.7v11.6l39.3-10.3z"/><path fill="#5F5033" d="M1210.7 75.4s1.4 20.2 14.4 27.5c0 0-11 5.4-32 4.2-21-1.2-21-1.1-21-1.1s22.3-32.6 37.5-30.7"/><path fill="#A97036" d="M1212.4 111.7l-9.6-4.4-2.8 28h-32.2l-5.8-29.6-9.1 1.6s4.5 24.9 1.4 33.1l-3.1 8.2s3.4 11 3.9 25.4c.6 14.4-.6 25.6-.6 25.6h-1.7l-1.7 11.3 3.1 1.7-18.2 137.9s17.5 11.6 46.5 7.9c29-3.7 34.1-3.9 34.1-3.9l-15.8-139-2.3-23.4 10.1-41.2s-3.1-18.3 0-25.7c3.2-7.3 3.8-13.5 3.8-13.5z"/><circle fill="#9D4E6F" cx="1065.1" cy="159.4" r="8.4"/><circle fill="#9D4E6F" cx="1051.6" cy="153.3" r="9"/><circle fill="#9D4E6F" cx="1042.8" cy="143.5" r="9.9"/><path fill="#9D4E6F" d="M1065.1 166.3s-2.1 8.9 0 16.9c0 0-3.6-7.9-.9-16.9 2.7-9.1.9 0 .9 0z"/><path fill="#9D4E6F" d="M1048.7 158.5s-1.1.3-4.1 7l-2.7 8.5s-.1-11.4 4.8-16.4c5-5 2 .9 2 .9z"/><path fill="#9D4E6F" d="M1037.3 149.8s-4.9 1.1-5.9 12.5c0 0-2-8.5 4.1-14.3 6.2-5.8 1.8 1.8 1.8 1.8z"/><path fill="#9D4E6F" d="M1064.4 153.3s18.3-55.4 54.1-18c0 0-21-26.5-40.5-6.3 0 0-9.7 9.1-13.6 24.3z"/><path fill="#9D4E6F" d="M1054.5 151s26.4-35.5 62.3-43.7c0 0-14.4-1.1-41.2 20.4 0 .1-14.3 13-21.1 23.3z"/><path fill="#9D4E6F" d="M1046.5 139.6s45.4-5.8 47.5-43.6c0 0-2.4 19.8-17.2 30.8s-28.2 9.9-30.3 12.8z"/><ellipse transform="matrix(-.196 -.981 .981 -.196 1359.273 1241.971)" fill="#5D5163" cx="1188.9" cy="63.6" rx="12" ry="60.3"/><path fill="#CBB199" d="M1208.7 56.7s3.7 20.1 1.3 37c0 0-1.8 2.1-11.9 3.7l-10 1.6-.8 5-7.1 4.2-3.7-5.3v-15s-5.9-4.8-7.1-12.4c-1.2-7.7 2.1-27.9 20.7-28.4 18.6-.5 18.1 6.7 18.6 9.6z"/><path fill="#5F5033" d="M1212.4 65.2c-1.1 0-3.5 2.2-17-2.9s-13.7-3.5-13.7-3.5-1.4 2-3 6.8-2.1 6.4-2.1 6.4 0-5-2.4-3.4-3.2 8.2 0 9.6c3.2 1.4 2.6 22.6 2.6 22.6s-1.5 3.4-4.7 1.6c-3.2-1.8-14.8-3.8-10.1-24.8s8.4-40 33.6-32.8c25.2 7.2 16.8 20.4 16.8 20.4z"/><path fill="#856566" d="M1130.5 66.9c4.8-2.9 15.1-15.2 51-24.7h63.9c1.8 2.6 2.6 9.6 2.6 9.6-1.3-6.5-28.8-6.4-61.5.1s-58.1 17.1-56.8 23.5c0 0-3.9-5.6.8-8.5z"/><path fill="#5F5033" d="M1193 63.6s-1.1-.6-3.1-.2l-4.2 2.2s1-3.7 3.7-4.1c2.7-.4 3.6 2.1 3.6 2.1z"/><path fill="#5F5033" d="M1191.3 68.3c0-.8-.6-1.5-1.5-1.5-.8 0-1.5.6-1.5 1.5v3.3c0 .8.6 1.5 1.5 1.5.8 0 1.5-.6 1.5-1.5v-3.3z"/><path fill="#5F5033" d="M1207.4 67.8c0-.5-.4-.9-.9-.9s-.9.4-.9.9v2.8c0 .5.4.9.9.9s.9-.4.9-.9v-2.8z"/><path fill="#876F54" d="M1205.5 86.6s-1.6.5-9 0l-10.8-2.6 12.9 6.9c.1-.1 1.8-4.8 6.9-4.3z"/><path fill="#876F54" d="M1205.5 80.3l-5.5 1.8s4.2-2.4 2.8-4.5c-1.5-2.1-1.5-7.6-1.5-7.6s3.7 7.9 4.2 10.3z"/><path fill="#856566" d="M1104.4 150c-.8 0-18 11.3-18 11.3l-13.2-24.8s-6.5-9.9 0-13.2c6.5-3.4 9.3 2.3 9.3 2.3l2.5-.6s2.2 2.3 4.1 4.6c1.1 1.4 2.1 2.8 2.5 3.8.8 2.5.6 4.2.6 4.2l12.2 12.4z"/><path fill="#644B4C" d="M1074.4 135.4s-.7 1.8-4.2-1.1c-3.5-3-5.2-4.1-3.6-5.3 1.6-1.2 3.3.6 3.3.6s5.3 3.6 4.5 5.8z"/><path fill="#644B4C" d="M1081 129.6c-.1 0-.3-.1-.5-.2-.8-.5-2.3-2-4-4-2.3-2.6-3-5.2-.6-6.3 2.4-1.1 8.2 8.2 6.6 9.4l-1.5 1.1"/><path fill="#644B4C" d="M1078.6 131.2s.1.4-1.1 0c-1.2-.4-7.3-6.8-7.3-6.8s.2-1.2 1.9-2.1c1.7-.9 1.3-.5 3.5 2.1 2.3 2.5 6 5.1 3 6.8z"/><path fill="#644B4C" d="M1076.8 133.4s-.6.4-2.4 0c-1.7-.4-7.2-6.9-7.2-6.9s.3-2.2 1.7-2.2 3.9 2.6 6.1 5.3c2.2 2.7 3.2 2.4 1.8 3.8z"/><path fill="#644B4C" d="M1170.7 212.5s1.4 1.4-2.8 3.3c-4.1 1.9-5.9 3-6.3 1-.4-2 2-2.7 2-2.7s5.5-3.2 7.1-1.6z"/><path fill="#644B4C" d="M1168.3 204.1c0 .1-.2.2-.4.3-.8.5-2.7 1.2-5.3 2-3.3 1-6 .5-5.9-2.1 0-2.6 10.9-3.9 11.3-2.1l.3 1.9"/><path fill="#644B4C" d="M1177.4 200.1c-.1.1-.3.1-.5.2-.9.1-3 .1-5.7-.1-3.5-.3-5.7-1.7-4.7-4.2 1-2.4 11.6.3 11.2 2.2l-.3 1.9"/><path fill="#644B4C" d="M1168.7 206.9s.4.1-.5 1c-.9 1-9.3 3.7-9.3 3.7s-1-.7-1.1-2.6c-.1-1.9.1-1.4 3.4-2.3 3.3-.9 7.2-3.2 7.5.2z"/><path fill="#644B4C" d="M1169.9 209.5s.1.7-1 2.1c-1.1 1.4-9.3 3.7-9.3 3.7s-1.9-1.3-1.3-2.5c.6-1.2 4-2.4 7.4-3.3 3.4-.9 3.5-1.9 4.2 0z"/><path fill="#644B4C" d="M1079.7 132c.9.8 2.5-.4 4.3-1.3 1.7-.9 1.9 0 2.3.6.5.6 4.4.7 3.1-1-1.3-1.7-4.6-5.4-4.6-5.4s-4 2.4-5.1 5.3c0 .1-.8 1.1 0 1.8z"/><path fill="#5F5033" d="M1218.6 369.1l-21.1 1.1 4.5 21.4-1.4 11h13.5s-3.7-1.7 0-1.7 4.5 2.8 4.5 2.8h25.9s1.7-3.4-1.4-5.1c-3.1-1.7-26.5-8.7-26.5-8.7l2-20.8z"/><path fill="#5F5033" d="M1128.2 369.1l21.1 1.1-4.5 21.4 1.4 11h-13.5s3.7-1.7 0-1.7l-4.5 2.8h-25.9s-1.7-3.4 1.4-5.1c3.1-1.7 26.5-8.7 26.5-8.7l-2-20.8z"/><path fill="#876F54" d="M1242.1 189.1c.5 0 .8 0 1.1-.1-.3.1-.7.1-1.1.1z"/><path fill="#876F54" d="M1243.1 189.1h0z"/><path fill="#876F54" d="M1241.8 189.1h0z"/><path fill="#876F54" d="M1240.8 189.2c.4 0 .7 0 1-.1-.3.1-.7.1-1 .1z"/><path fill="#876F54" d="M1240.7 189.2z"/><path fill="#876F54" d="M1243.4 189z"/><path fill="#876F54" d="M1232.8 189.7c.5-.1 1.1-.2 1.6-.2 0 0 26.1.6 20.6 41.6h2.5s6.6-35.1-17.2-42c-.4 0-.7 0-1.1.1.4 0 .8 0 1.1-.1-2.5-.7-5.4-1.2-8.6-1.2 0 0-2.9.2-6 3.2l6-1.3c.4 0 .7 0 1.1-.1zm1.7-.2zm2.7-.1c.4 0 .8 0 1.1-.1-.3 0-.7.1-1.1.1zm-1.3 0h0zm-.8.1h0zm-.5 0h0z"/><path fill="#876F54" d="M1221.4 205.8c-1.6 11.7 1.3 25.4 1.3 25.4h-1.4c-2-10.9-2.3-19-1.5-25.1l1.6-.3z"/><path fill="#876F54" d="M1240.7 189.2h0z"/><path fill="#876F54" d="M1243.2 189.1h0z"/><path fill="#9D4E6F" d="M1235.8 241.3s10.4-29.8-19.2-42.5c0 0 24.9 9.3 19.2 42.5z"/><polygon fill="#876F54" points="1216.6,266.8 1263.1,265.9 1266.9,234 1210.8,234"/><rect x="1204.5" y="230" fill="#6D6044" width="66.2" height="8"/><path fill="#856566" d="M1208 191.2c-.1 1.1 2.8 24 2.8 24l-31.7-3.9-13.2 6.5-6.8-15.8 10.1-2.5 1.5-4.8 12.4 4.5 24.9-8z"/><ellipse opacity=".2" fill="#8A8542" enable-background="new" cx="1829.2" cy="553.7" rx="74.8" ry="12"/><path fill="#B7B1A1" d="M1797.7 552l14.1-1.8s5.3-107.8 4.7-105.1c-.6 2.6-17.1 7.9-17.1 7.9l-1.7 99z"/><path fill="#E1DCCC" d="M1812.1 448.2c-5.1 2.4-12.6 4.8-12.6 4.8l-1.8 99 9.9-1.2c.8-17.4 3.8-83.9 4.5-102.6z"/><path opacity=".2" fill="#231F20" enable-background="new" d="M1816.5 445.1c-.2.9-2.1 2-4.6 3.2-5.1 2.4-12.5 4.7-12.5 4.7l-.5 25.5 11-2.2 5.2 3.1c1-19.5 1.7-35.3 1.4-34.3z"/><polygon fill="#B7B1A1" points="1697.2,358 1916.2,349.8 1925.4,364.4 1926.3,452.7 1920.6,460.8 1705.9,467.3"/><polygon fill="#E1DCCC" points="1701.1,361.7 1911.4,353.8 1912.3,454.5 1709,460.7"/><circle fill="#B7B1A1" cx="1712.8" cy="371.4" r="4.4"/><circle fill="#B7B1A1" cx="1718.8" cy="451.7" r="4.4"/><circle fill="#B7B1A1" cx="1901.3" cy="447.9" r="4.4"/><circle fill="#B7B1A1" cx="1902.6" cy="362.8" r="4.4"/><ellipse opacity=".2" fill="#231F20" enable-background="new" cx="1225" cy="632" rx="92" ry="20"/><ellipse opacity=".2" fill="#231F20" enable-background="new" cx="1378.5" cy="551.9" rx="63.4" ry="13.8"/><ellipse opacity=".2" fill="#231F20" enable-background="new" cx="1335" cy="510" rx="32.5" ry="7.1"/><ellipse opacity=".2" fill="#231F20" enable-background="new" cx="1718" cy="306" rx="14.1" ry="3.1"/><ellipse opacity=".2" fill="#231F20" enable-background="new" cx="1702.5" cy="286" rx="15.9" ry="3.5"/><ellipse opacity=".2" fill="#231F20" enable-background="new" cx="1750.5" cy="283.5" rx="7.4" ry="1.6"/><ellipse opacity=".2" fill="#231F20" enable-background="new" cx="1611" cy="255.6" rx="7.4" ry="1.6"/><ellipse opacity=".2" fill="#231F20" enable-background="new" cx="1508.5" cy="308.2" rx="38" ry="5.3"/><path fill="#C9A559" d="M1536.9 261.2s7.2 2 13.4.6 14.1-4.5 20.4-10.1l1.8 7.5s-8.1 6-16.3 7.7c-8.2 1.7-13.1 1.1-16.4.2l-2.6-1.3-.3-4.6z"/><path opacity=".4" fill="#919396" enable-background="new" d="M1539.1 261.7c-1.4-.3-2.3-.5-2.3-.5l.3 4.5 2.6 1.3c.3.1.6.2.9.2.9-.6 1.5-.9 1.5-.9l-3-4.6z"/><path fill="#C9A559" d="M1525.1 272s5.3 9.3 22.6 10.3l22.6-3.6-1.5-5.7s-7.1 5.6-21.8 3.7c-14.7-1.9-15.6-6.7-16.9-8.6l1.3 2-6.3 1.9z"/><path fill="#919396" d="M1529.9 267.8z"/><path fill="#919396" d="M1529.8 267.7z"/><path fill="#919396" d="M1530.1 268.1c-.1-.1-.2-.2-.2-.3 0 0 .1.1.2.3z"/><path fill="#919396" d="M1530.1 268.1l.1.1c.3.5.6 1.2 1.2 2h.1s-1-1.4-1.4-2.1z"/><path fill="#919396" d="M1529.8 267.7z"/><path opacity=".4" fill="#919396" enable-background="new" d="M1531.3 270.2l-6.2 1.8s.7 1.2 2.4 2.9c1.8-1 3.6-2 5.3-3-.6-.6-1.1-1.2-1.5-1.7z"/><path fill="#919396" d="M1529.8 267.7z"/><path fill="#C9A559" d="M1451.7 306.4l7.3-1.8s-5.2-4.9-1-16.7c4.3-11.9 7.8-11.9 10.4-13.6l-6.1-5.6s-8.3 5.2-10.9 15.5c-2.6 10.3-1.5 17.5.3 22.2z"/><path opacity=".4" fill="#919396" enable-background="new" d="M1457.6 272.8c1.4 1.9 3.2 3.7 5.4 5.2 2-2.3 3.7-2.7 5.2-3.6l-6.1-5.6c.1.1-2 1.4-4.5 4z"/><path fill="#C9A559" d="M1471.8 218.4s15.6-14.7 15.4-14.7c-.3 0-.2 8.6-4.9 12.3s-7.2 4-10.5 2.4z"/><path fill="#C9A559" d="M1485.4 223.5s19.4-9.3 19.1-9.3c-.2-.1-2.8 8.1-8.4 10.2-5.5 2.1-8 1.6-10.7-.9z"/><path fill="#C9A559" d="M1454.8 242.6s-10 27.8 15 37.5c22.3 8.7 36.8 4 47.6-1.2 10.9-5.2 24.6-13.8 24.6-13.8l-15.1-24.3s-5.4 11.8-23.6 10.5c-18.2-1.3-18.2-13.7-18.9-17.5-.7-3.8 4.5-9.7 4.5-9.7l-21.7-9.1s-9.2 15.2-12.4 27.6z"/><path fill="#C9A559" d="M1426.9 296.6l8.8-.5s.2-13.5 5.8-20.3c5.6-6.8 12.1-10.8 17.7-13l-3.2-5.7s-12 5.3-19 13.4c-7 8.2-10.4 17.2-10.1 26.1z"/><ellipse transform="matrix(.057 .998 -.998 .057 1619.744 -1263.544)" fill="#E7E6E6" cx="1478.9" cy="225.8" rx="4.9" ry="4.6"/><ellipse transform="matrix(.057 .998 -.998 .057 1605.705 -1256.914)" fill="#E7E6E6" cx="1468.3" cy="221.6" rx="4.9" ry="4.6"/><path fill="#AA702F" d="M1474.2 220.9c.1-.5.1-1 .1-1.5-.2-3.2-2.8-5.6-5.7-5.4-1.8.1-3.3 1.1-4.2 2.6l9.8 4.3z"/><path fill="#AA702F" d="M1486.1 225.1c.1-.5.1-1 .1-1.5-.2-3.2-2.8-5.6-5.7-5.4-1.8.1-3.3 1.1-4.2 2.6l9.8 4.3z"/><circle fill="#856567" cx="1465.2" cy="222" r="1.3"/><circle fill="#856567" cx="1477.1" cy="226.2" r="1.3"/><path fill="#C9A559" d="M1525 247.4l7.4-43.6s7 9 4 17l-9.1 26.5-2.3.1z"/><path opacity=".4" fill="#919396" enable-background="new" d="M1468.7 240.9l-13.2-.9c-.3.9-.5 1.7-.7 2.6v.1c2.4.6 7.9 1.4 13.9-1.8z"/><path fill="#EB6643" d="M1448.6 236.4s-6.7 3.6-4.8 6c1.9 2.3 9.1-2.1 9.1-2.1l-4.3-3.9z"/><path fill="#C9A559" d="M1471.4 227.4l-22.7-8.5s-7.9 18.1 3.2 21.8c11.1 3.7 16.8.2 16.8.2l2.7-13.5z"/><polygon fill="#AA702F" points="1449.4,220.8 1455.7,225.9 1447.6,228.5"/><path opacity=".4" fill="#919396" enable-background="new" d="M1454.6 263.6c-2.6-8.1-.8-16.5.1-20-.7 2.1-3.3 11.3-.7 20.4l.6-.4z"/><path opacity=".4" fill="#919396" enable-background="new" d="M1452.8 256.1l35.8-10.8c-1.5-1.8-2.5-3.7-3-5.5l-32.4 9.8c-.3 1.9-.4 4.1-.4 6.5z"/><rect x="1450.7" y="245.4" transform="matrix(-.957 .29 -.29 -.957 2950.58 59.93)" fill="#C5D276" width="40.4" height="6.1"/><polygon fill="#856567" points="1456.8,258.2 1454.6,255 1456.4,251.4 1460.3,251.2 1462.5,254.5 1460.7,258"/><path fill="#AA702F" d="M1504.7 251.4c.5 2.2 2.5 3.8 4.8 3.6 2.5-.1 4.4-2.2 4.4-4.6-2.6.8-5.6 1.1-9.2 1z"/><path fill="#AA702F" d="M1509.9 282c-2-9.9-11.1-17.2-21.5-16.6-8.9.5-16.2 6.6-18.6 14.7 17.6 6.9 30.2 5.4 40.1 1.9z"/></svg>